<svg width="355" height="748" viewBox="0 0 355 748" fill="none" xmlns="http://www.w3.org/2000/svg">
<path d="M89.3525 0L177.974 39.0651L89.3525 78.1301L0.731445 39.0651L89.3525 0Z" fill="#F5CFE5"/>
<path d="M1 39L89.5 78V92.5L1 53.747V39Z" fill="#F1B9D9"/>
<path d="M0.873535 53.1523L89.4946 92.1428V513.599L0.873535 474.534L0.873535 53.1523Z" fill="#F1B9D9"/>
<path d="M89.3525 92.5918L177.974 53.5865V38.8503L89.3525 77.8565V92.5918Z" fill="#F1B9D9"/>
<path d="M177.849 39.1279L266.47 78.193L177.849 117.258L89.2275 78.193L177.849 39.1279Z" fill="#F1BFE0"/>
<path d="M89.2275 77.9775L177.849 116.968V131.719L89.2275 92.6539V77.9775Z" fill="#EDA5D4"/>
<path d="M89.3696 92.2803L177.991 131.271V552.727L89.3696 513.662L89.3696 92.2803Z" fill="#EDA5D4"/>
<path d="M177.849 131.72L266.47 92.7145V77.9783L177.849 116.984V131.72Z" fill="#EDA5D4"/>
<path d="M266.344 78.2539L354.966 117.319L266.344 156.384L177.723 117.319L266.344 78.2539Z" fill="#E6ACE4"/>
<path d="M177.723 117.103L266.344 156.093V170.844L177.723 131.779V117.103Z" fill="#D79BD5"/>
<path d="M266.345 170.845L354.966 131.84V117.104L266.345 156.11V170.845Z" fill="#D79BD5"/>
<path d="M266.345 592.159L354.966 553.153V131.167L266.345 170.173L266.345 592.159Z" fill="#D79BD5"/>
<path d="M177.849 117.382L266.47 156.447L177.849 195.512L89.2275 156.447L177.849 117.382Z" fill="#C198EA"/>
<path d="M89.2275 156.231L177.849 195.221V209.972L89.2275 170.907V156.231Z" fill="#AD82D8"/>
<path d="M177.849 209.973L266.47 170.968V156.232L177.849 195.238V209.973Z" fill="#AD82D8"/>
<path d="M177.849 631.287L266.47 592.281V170.295L177.849 209.301L177.849 631.287Z" fill="#AD82D8"/>
<path d="M89.3525 156.51L177.974 195.575L89.3525 234.64L0.731445 195.575L89.3525 156.51Z" fill="#CDB5F1"/>
<path d="M0.731445 195.359L89.3525 234.35V249.101L0.731445 210.036V195.359Z" fill="#BFA9DF"/>
<path d="M0.873535 209.662L89.4946 248.652V670.108L0.873535 631.043L0.873535 209.662Z" fill="#BFA9DF"/>
<path d="M89.3525 249.101L177.974 210.096V195.36L89.3525 234.366V249.101Z" fill="#BFA9DF"/>
<path d="M177.899 195.637L266.52 234.702L177.899 273.767L89.2776 234.702L177.899 195.637Z" fill="#D5CAF6"/>
<path d="M89.2776 234.487L177.899 273.477V288.228L89.2776 249.163V234.487Z" fill="#C1B1F0"/>
<path d="M89.4194 248.79L178.04 287.78V709.236L89.4194 670.171L89.4194 248.79Z" fill="#C1B1F0"/>
<path d="M265.932 234.095L354.966 273.16L265.932 312.225L176.898 273.16L265.932 234.095Z" fill="#E1E5FD"/>
<path d="M176.898 272.944L265.932 311.935V326.686L176.898 287.621V272.944Z" fill="#C9D0FB"/>
<path d="M177.041 287.248L266.075 326.238V747.694L177.041 708.629L177.041 287.248Z" fill="#C9D0FB"/>
<path d="M265.932 326.687L354.966 287.681V272.945L265.932 311.951V326.687Z" fill="#C9D0FB"/>
<path d="M265.932 748L354.966 708.995V287.009L265.932 326.015L265.932 748Z" fill="#C9D0FB"/>
<path d="M46.944 45.3463H54.888V47.5543H46.944V45.3463ZM48.144 32.5303H55.632V34.6183H48.144V32.5303ZM44.928 41.0023H56.904V48.5143H54.072V43.1863H47.664V48.5143H44.928V41.0023ZM48.216 34.2343C48.808 34.7783 49.528 35.2983 50.376 35.7943C51.24 36.2903 52.176 36.7543 53.184 37.1863C54.208 37.6023 55.272 37.9783 56.376 38.3143C57.48 38.6343 58.576 38.9063 59.664 39.1303C59.36 39.4023 59.04 39.7703 58.704 40.2343C58.368 40.6983 58.104 41.0983 57.912 41.4343C56.84 41.1783 55.744 40.8503 54.624 40.4503C53.52 40.0343 52.44 39.5703 51.384 39.0583C50.328 38.5303 49.336 37.9623 48.408 37.3543C47.48 36.7463 46.648 36.1063 45.912 35.4343L48.216 34.2343ZM55.104 32.5303H55.632L56.064 32.3863L57.888 33.5143C57.2 34.5863 56.344 35.5623 55.32 36.4423C54.312 37.3223 53.184 38.1063 51.936 38.7943C50.704 39.4823 49.408 40.0743 48.048 40.5703C46.688 41.0663 45.328 41.4823 43.968 41.8183C43.84 41.4823 43.64 41.0903 43.368 40.6423C43.096 40.1783 42.832 39.8103 42.576 39.5383C43.84 39.2983 45.104 38.9703 46.368 38.5543C47.632 38.1223 48.832 37.6263 49.968 37.0663C51.104 36.4903 52.112 35.8583 52.992 35.1703C53.888 34.4663 54.592 33.7143 55.104 32.9143V32.5303ZM37.152 46.3063C37.6 45.8743 38.096 45.3623 38.64 44.7703C39.184 44.1783 39.744 43.5463 40.32 42.8743C40.896 42.2023 41.456 41.5303 42 40.8583L43.68 42.9703C43.232 43.5783 42.752 44.2023 42.24 44.8423C41.744 45.4663 41.24 46.0903 40.728 46.7143C40.216 47.3383 39.704 47.9463 39.192 48.5383L37.152 46.3063ZM38.232 32.9863L39.888 31.0423C40.304 31.2503 40.768 31.4983 41.28 31.7863C41.808 32.0583 42.312 32.3383 42.792 32.6263C43.288 32.9143 43.704 33.1623 44.04 33.3703L42.312 35.5543C42.008 35.3143 41.616 35.0503 41.136 34.7623C40.656 34.4583 40.16 34.1463 39.648 33.8263C39.136 33.5063 38.664 33.2263 38.232 32.9863ZM36.72 37.7143L38.4 35.7703C38.832 35.9783 39.304 36.2263 39.816 36.5143C40.344 36.8023 40.848 37.0983 41.328 37.4023C41.808 37.6903 42.208 37.9543 42.528 38.1943L40.776 40.3783C40.488 40.1223 40.112 39.8423 39.648 39.5383C39.184 39.2183 38.688 38.8983 38.16 38.5783C37.648 38.2583 37.168 37.9703 36.72 37.7143ZM47.904 30.8983L50.664 31.4503C49.88 32.6183 48.984 33.7623 47.976 34.8823C46.984 36.0023 45.848 37.0583 44.568 38.0503C44.328 37.7623 44.008 37.4503 43.608 37.1143C43.224 36.7623 42.872 36.4983 42.552 36.3223C43.752 35.5223 44.808 34.6343 45.72 33.6583C46.648 32.6663 47.376 31.7463 47.904 30.8983ZM42.36 26.0023H45.168V31.4503H42.36V26.0023ZM50.688 26.0023H53.496V31.4503H50.688V26.0023ZM37.32 27.3463H58.68V29.8903H37.32V27.3463ZM72.624 37.3543H82.44V48.4423H79.68V39.9703H75.216V48.5383H72.624V37.3543ZM75.816 26.0503H78.6V38.0743H75.816V26.0503ZM77.472 30.9943H83.256V33.6583H77.472V30.9943ZM73.992 44.9863H80.976V47.6023H73.992V44.9863ZM63.72 28.6663V33.9223H69.552V28.6663H63.72ZM61.584 26.7463H71.784V35.8423H61.584V26.7463ZM63.672 29.6983L64.872 29.3623C65.064 29.9063 65.232 30.4983 65.376 31.1383C65.52 31.7783 65.608 32.3303 65.64 32.7943L64.368 33.2023C64.352 32.7383 64.28 32.1783 64.152 31.5223C64.024 30.8663 63.864 30.2583 63.672 29.6983ZM64.272 43.4743L66.024 43.2583C66.168 43.9143 66.28 44.6343 66.36 45.4183C66.456 46.2023 66.512 46.8823 66.528 47.4583L64.68 47.6983C64.696 47.1223 64.664 46.4423 64.584 45.6583C64.504 44.8583 64.4 44.1303 64.272 43.4743ZM66.672 43.3543L68.376 43.0423C68.616 43.6823 68.832 44.3703 69.024 45.1063C69.216 45.8263 69.352 46.4663 69.432 47.0263L67.632 47.3863C67.584 46.8423 67.464 46.1943 67.272 45.4423C67.096 44.6903 66.896 43.9943 66.672 43.3543ZM69 43.1623L70.704 42.5143C71.104 43.0903 71.48 43.7303 71.832 44.4343C72.184 45.1383 72.432 45.7543 72.576 46.2823L70.752 47.0263C70.624 46.4823 70.392 45.8503 70.056 45.1303C69.736 44.4103 69.384 43.7543 69 43.1623ZM62.16 43.3303L64.104 43.8823C63.96 44.7463 63.76 45.6023 63.504 46.4503C63.264 47.2983 62.888 48.0023 62.376 48.5623L60.504 47.6023C60.952 47.0903 61.312 46.4503 61.584 45.6823C61.856 44.8983 62.048 44.1143 62.16 43.3303ZM68.376 29.3383L69.816 29.8183C69.592 30.3943 69.36 31.0023 69.12 31.6423C68.896 32.2823 68.688 32.8183 68.496 33.2503L67.416 32.8423C67.544 32.5063 67.664 32.1383 67.776 31.7383C67.904 31.3223 68.024 30.9063 68.136 30.4903C68.248 30.0583 68.328 29.6743 68.376 29.3383ZM61.032 40.3303C61.976 40.3143 63.048 40.2903 64.248 40.2583C65.464 40.2103 66.744 40.1623 68.088 40.1143C69.432 40.0663 70.776 40.0103 72.12 39.9463L72.072 42.2023C70.776 42.2663 69.464 42.3383 68.136 42.4183C66.824 42.4823 65.568 42.5463 64.368 42.6103C63.184 42.6583 62.096 42.7063 61.104 42.7543L61.032 40.3303ZM61.632 36.8743H71.736V39.0583H61.632V36.8743ZM65.736 27.7303H67.464V34.9543H67.872V41.2183H65.328V34.9543H65.736V27.7303ZM88.68 34.8343H101.664V37.6183H88.68V34.8343ZM100.704 34.8343H103.728C103.728 34.8343 103.728 34.9143 103.728 35.0743C103.728 35.2183 103.728 35.3943 103.728 35.6023C103.728 35.7943 103.72 35.9543 103.704 36.0823C103.64 37.8903 103.568 39.4503 103.488 40.7623C103.408 42.0583 103.312 43.1383 103.2 44.0023C103.104 44.8663 102.984 45.5543 102.84 46.0663C102.696 46.5783 102.52 46.9623 102.312 47.2183C101.992 47.6023 101.656 47.8743 101.304 48.0343C100.968 48.1943 100.568 48.3063 100.104 48.3703C99.704 48.4343 99.176 48.4663 98.52 48.4663C97.864 48.4823 97.176 48.4743 96.456 48.4423C96.44 48.0103 96.344 47.5143 96.168 46.9543C95.992 46.4103 95.776 45.9383 95.52 45.5383C96.192 45.5863 96.816 45.6183 97.392 45.6343C97.968 45.6503 98.4 45.6583 98.688 45.6583C98.912 45.6583 99.096 45.6423 99.24 45.6103C99.384 45.5623 99.528 45.4663 99.672 45.3223C99.864 45.1143 100.016 44.6583 100.128 43.9543C100.256 43.2343 100.368 42.1783 100.464 40.7863C100.56 39.3783 100.64 37.5623 100.704 35.3383V34.8343ZM91.368 26.3143L94.488 27.2263C93.896 28.6183 93.184 29.9623 92.352 31.2583C91.536 32.5543 90.648 33.7463 89.688 34.8343C88.744 35.9223 87.76 36.8663 86.736 37.6663C86.56 37.4583 86.32 37.2103 86.016 36.9223C85.712 36.6183 85.4 36.3223 85.08 36.0343C84.776 35.7463 84.504 35.5143 84.264 35.3383C85.256 34.6663 86.2 33.8663 87.096 32.9383C88.008 31.9943 88.832 30.9623 89.568 29.8423C90.304 28.7063 90.904 27.5303 91.368 26.3143ZM100.512 26.2663C100.896 27.0343 101.36 27.8183 101.904 28.6183C102.448 29.4183 103.04 30.2023 103.68 30.9703C104.336 31.7223 105 32.4343 105.672 33.1063C106.36 33.7783 107.032 34.3623 107.688 34.8583C107.432 35.0503 107.144 35.3063 106.824 35.6263C106.52 35.9303 106.224 36.2423 105.936 36.5623C105.664 36.8823 105.432 37.1783 105.24 37.4503C104.568 36.8263 103.888 36.1303 103.2 35.3623C102.512 34.5783 101.832 33.7543 101.16 32.8903C100.504 32.0103 99.88 31.1063 99.288 30.1783C98.696 29.2343 98.16 28.3063 97.68 27.3943L100.512 26.2663ZM92.952 35.6503H96.096C95.984 36.9943 95.8 38.3063 95.544 39.5863C95.288 40.8663 94.864 42.0743 94.272 43.2103C93.696 44.3463 92.856 45.3863 91.752 46.3303C90.664 47.2583 89.224 48.0503 87.432 48.7063C87.32 48.4343 87.16 48.1383 86.952 47.8183C86.744 47.4983 86.52 47.1783 86.28 46.8583C86.04 46.5543 85.8 46.2903 85.56 46.0663C87.176 45.5543 88.456 44.9223 89.4 44.1703C90.344 43.4023 91.056 42.5703 91.536 41.6743C92.016 40.7623 92.344 39.7943 92.52 38.7703C92.712 37.7463 92.856 36.7063 92.952 35.6503ZM120.888 34.1143H131.328V36.8263H120.888V34.1143ZM119.448 27.6823L122.88 28.6423C122.848 28.8663 122.64 29.0103 122.256 29.0743V34.7143C122.256 35.6743 122.208 36.7463 122.112 37.9303C122.032 39.0983 121.872 40.3143 121.632 41.5783C121.392 42.8263 121.032 44.0503 120.552 45.2503C120.088 46.4343 119.464 47.5223 118.68 48.5143C118.552 48.3063 118.352 48.0743 118.08 47.8183C117.824 47.5783 117.552 47.3463 117.264 47.1223C116.976 46.8983 116.712 46.7383 116.472 46.6423C117.144 45.7623 117.68 44.8183 118.08 43.8103C118.48 42.7863 118.776 41.7463 118.968 40.6903C119.16 39.6343 119.288 38.5943 119.352 37.5703C119.416 36.5303 119.448 35.5703 119.448 34.6903V27.6823ZM128.16 26.2663L130.584 28.5223C129.656 28.8903 128.648 29.2423 127.56 29.5783C126.472 29.8983 125.368 30.1783 124.248 30.4183C123.128 30.6583 122.032 30.8583 120.96 31.0183C120.896 30.6823 120.768 30.2823 120.576 29.8183C120.4 29.3543 120.216 28.9703 120.024 28.6663C121.016 28.4743 122.008 28.2583 123 28.0183C123.992 27.7623 124.936 27.4823 125.832 27.1783C126.728 26.8743 127.504 26.5703 128.16 26.2663ZM125.376 34.9543H128.232V48.5383H125.376V34.9543ZM109.08 30.9703H118.032V33.6823H109.08V30.9703ZM112.368 26.0023H115.128V48.5383H112.368V26.0023ZM112.248 32.8183L113.928 33.3943C113.752 34.3703 113.52 35.3703 113.232 36.3943C112.96 37.4183 112.64 38.4263 112.272 39.4183C111.92 40.4103 111.536 41.3383 111.12 42.2023C110.704 43.0503 110.264 43.7863 109.8 44.4103C109.672 43.9943 109.472 43.5303 109.2 43.0183C108.928 42.5063 108.672 42.0743 108.432 41.7223C108.864 41.1943 109.272 40.5783 109.656 39.8743C110.04 39.1703 110.392 38.4263 110.712 37.6423C111.048 36.8423 111.344 36.0343 111.6 35.2183C111.872 34.3863 112.088 33.5863 112.248 32.8183ZM114.912 34.9303C115.072 35.0903 115.312 35.3783 115.632 35.7943C115.968 36.1943 116.32 36.6263 116.688 37.0903C117.056 37.5543 117.384 37.9863 117.672 38.3863C117.976 38.7863 118.192 39.0743 118.32 39.2503L116.688 41.5303C116.544 41.1623 116.336 40.7383 116.064 40.2583C115.792 39.7783 115.504 39.2903 115.2 38.7943C114.896 38.2823 114.6 37.8023 114.312 37.3543C114.04 36.9063 113.808 36.5303 113.616 36.2263L114.912 34.9303Z" fill="#5A5A5A"/>
<path d="M225.716 108.549H228.596V115.245C228.596 116.365 228.524 117.493 228.38 118.629C228.252 119.765 227.972 120.877 227.54 121.965C227.124 123.037 226.5 124.053 225.668 125.013C224.852 125.973 223.748 126.837 222.356 127.605C222.212 127.381 222.02 127.125 221.78 126.837C221.54 126.565 221.284 126.293 221.012 126.021C220.74 125.749 220.492 125.533 220.268 125.373C221.484 124.733 222.452 124.013 223.172 123.213C223.892 122.413 224.436 121.573 224.804 120.693C225.172 119.813 225.412 118.909 225.524 117.981C225.652 117.037 225.716 116.109 225.716 115.197V108.549ZM234.692 105.405H237.644V127.557H234.692V105.405ZM220.508 114.525H242.54V117.285H220.508V114.525ZM230.948 105.141L232.988 107.565C231.932 108.093 230.764 108.589 229.484 109.053C228.22 109.501 226.916 109.909 225.572 110.277C224.244 110.645 222.932 110.973 221.636 111.261C221.572 110.925 221.436 110.525 221.228 110.061C221.036 109.597 220.844 109.205 220.652 108.885C221.916 108.597 223.172 108.261 224.42 107.877C225.668 107.477 226.852 107.045 227.972 106.581C229.108 106.117 230.1 105.637 230.948 105.141ZM245.012 120.861H266.012V123.141H245.012V120.861ZM249.26 116.781H259.508V118.797H249.26V116.781ZM254.084 119.781H256.916V124.893C256.916 125.549 256.828 126.053 256.652 126.405C256.476 126.757 256.14 127.021 255.644 127.197C255.148 127.373 254.564 127.477 253.892 127.509C253.22 127.557 252.428 127.581 251.516 127.581C251.452 127.197 251.332 126.781 251.156 126.333C250.98 125.885 250.796 125.493 250.604 125.157C251.004 125.173 251.404 125.189 251.804 125.205C252.22 125.205 252.588 125.205 252.908 125.205C253.244 125.205 253.468 125.205 253.58 125.205C253.772 125.189 253.9 125.157 253.964 125.109C254.044 125.061 254.084 124.957 254.084 124.797V119.781ZM258.836 116.781H259.532L260.132 116.637L261.74 118.101C261.212 118.517 260.628 118.941 259.988 119.373C259.364 119.789 258.716 120.197 258.044 120.597C257.388 120.997 256.732 121.349 256.076 121.653C255.932 121.429 255.724 121.173 255.452 120.885C255.18 120.597 254.956 120.373 254.78 120.213C255.276 119.957 255.78 119.661 256.292 119.325C256.804 118.973 257.284 118.613 257.732 118.245C258.196 117.877 258.564 117.549 258.836 117.261V116.781ZM245.012 113.661H266.06V118.605H263.204V115.749H247.724V118.605H245.012V113.661ZM246.404 106.101L249.764 106.773C249.7 106.965 249.492 107.093 249.14 107.157L249.548 114.597H246.908L246.404 106.101ZM262.076 105.813H264.812C264.764 106.805 264.708 107.845 264.644 108.933C264.58 110.005 264.508 111.045 264.428 112.053C264.348 113.061 264.26 113.941 264.164 114.693H261.38C261.492 113.909 261.596 113.013 261.692 112.005C261.788 110.997 261.868 109.957 261.932 108.885C261.996 107.797 262.044 106.773 262.076 105.813ZM258.692 105.813H263.132V107.613H258.692V105.813ZM251.252 105.141L252.596 106.701C251.924 107.005 251.18 107.285 250.364 107.541C249.548 107.797 248.812 107.997 248.156 108.141L247.028 106.677C247.46 106.565 247.932 106.421 248.444 106.245C248.956 106.069 249.46 105.885 249.956 105.693C250.452 105.501 250.884 105.317 251.252 105.141ZM247.916 108.453H252.404V110.229H247.916V108.453ZM247.964 111.045H252.452V112.845H247.964V111.045ZM258.788 108.453H262.844V110.229H258.788V108.453ZM258.716 111.045H262.748V112.845H258.716V111.045ZM256.316 105.165L258.164 105.741C257.636 106.461 256.956 107.149 256.124 107.805C255.292 108.461 254.476 108.997 253.676 109.413C253.5 109.237 253.26 109.021 252.956 108.765C252.652 108.493 252.388 108.285 252.164 108.141C252.98 107.773 253.764 107.333 254.516 106.821C255.268 106.309 255.868 105.757 256.316 105.165ZM252.764 106.437L254.06 105.333C254.54 105.557 255.036 105.829 255.548 106.149C256.06 106.453 256.54 106.765 256.988 107.085C257.452 107.405 257.836 107.701 258.14 107.973L256.748 109.197C256.476 108.925 256.116 108.621 255.668 108.285C255.22 107.949 254.74 107.621 254.228 107.301C253.732 106.981 253.244 106.693 252.764 106.437ZM256.436 109.197L258.308 109.749C257.764 110.533 257.06 111.269 256.196 111.957C255.348 112.645 254.5 113.213 253.652 113.661C253.492 113.485 253.252 113.261 252.932 112.989C252.628 112.717 252.364 112.509 252.14 112.365C252.988 111.981 253.796 111.517 254.564 110.973C255.348 110.413 255.972 109.821 256.436 109.197ZM252.812 110.517L254.132 109.413C254.628 109.653 255.14 109.933 255.668 110.253C256.212 110.573 256.716 110.901 257.18 111.237C257.66 111.573 258.052 111.885 258.356 112.173L256.94 113.421C256.652 113.133 256.276 112.821 255.812 112.485C255.348 112.133 254.852 111.789 254.324 111.453C253.812 111.101 253.308 110.789 252.812 110.517ZM268.484 107.877H277.604V110.637H268.484V107.877ZM271.532 109.125H274.388V121.077H271.532V109.125ZM268.076 120.645C268.876 120.501 269.804 120.317 270.86 120.093C271.932 119.853 273.068 119.597 274.268 119.325C275.484 119.037 276.684 118.757 277.868 118.485L278.18 121.053C276.548 121.501 274.9 121.957 273.236 122.421C271.572 122.869 270.076 123.277 268.748 123.645L268.076 120.645ZM279.716 109.293H290.708V112.053H279.716V109.293ZM280.316 104.973L283.148 105.549C282.78 107.053 282.332 108.525 281.804 109.965C281.292 111.405 280.716 112.741 280.076 113.973C279.452 115.205 278.772 116.285 278.036 117.213C277.876 117.053 277.644 116.861 277.34 116.637C277.036 116.413 276.724 116.197 276.404 115.989C276.084 115.781 275.812 115.613 275.588 115.485C276.324 114.669 276.988 113.709 277.58 112.605C278.172 111.485 278.7 110.277 279.164 108.981C279.628 107.669 280.012 106.333 280.316 104.973ZM286.1 111.093L289.052 111.549C288.652 113.693 288.108 115.613 287.42 117.309C286.732 119.005 285.876 120.509 284.852 121.821C283.828 123.117 282.604 124.245 281.18 125.205C279.772 126.149 278.132 126.949 276.26 127.605C276.18 127.365 276.044 127.077 275.852 126.741C275.676 126.421 275.484 126.093 275.276 125.757C275.068 125.421 274.884 125.149 274.724 124.941C277.028 124.237 278.94 123.293 280.46 122.109C281.996 120.909 283.212 119.405 284.108 117.597C285.02 115.789 285.684 113.621 286.1 111.093ZM281.06 111.405C281.492 113.565 282.124 115.541 282.956 117.333C283.788 119.125 284.868 120.677 286.196 121.989C287.524 123.285 289.156 124.285 291.092 124.989C290.884 125.181 290.652 125.429 290.396 125.733C290.14 126.037 289.892 126.349 289.652 126.669C289.428 127.005 289.244 127.309 289.1 127.581C287.02 126.717 285.284 125.541 283.892 124.053C282.5 122.565 281.372 120.805 280.508 118.773C279.644 116.725 278.932 114.437 278.372 111.909L281.06 111.405ZM294.596 106.437H301.508V122.853H294.596V120.381H299.324V108.909H294.596V106.437ZM293.132 106.437H295.244V124.821H293.132V106.437ZM294.284 113.205H300.428V115.557H294.284V113.205ZM304.58 124.269H311.996V126.789H304.58V124.269ZM305.3 107.397H311.708V109.797H305.3V107.397ZM296.372 107.901H298.148V121.461H296.372V107.901ZM302.924 118.653H313.316V127.533H310.532V121.149H305.588V127.557H302.924V118.653ZM311.084 107.397H311.588L312.068 107.277L313.94 108.213C313.428 109.621 312.764 110.925 311.948 112.125C311.148 113.309 310.236 114.389 309.212 115.365C308.204 116.341 307.116 117.213 305.948 117.981C304.78 118.733 303.572 119.381 302.324 119.925C302.148 119.573 301.892 119.181 301.556 118.749C301.236 118.301 300.932 117.941 300.644 117.669C301.78 117.253 302.884 116.717 303.956 116.061C305.028 115.405 306.028 114.653 306.956 113.805C307.884 112.957 308.7 112.037 309.404 111.045C310.124 110.037 310.684 108.989 311.084 107.901V107.397ZM305.612 104.973L308.348 105.741C307.916 106.797 307.396 107.829 306.788 108.837C306.18 109.829 305.524 110.749 304.82 111.597C304.116 112.445 303.396 113.189 302.66 113.829C302.516 113.637 302.316 113.413 302.06 113.157C301.804 112.901 301.54 112.653 301.268 112.413C300.996 112.157 300.756 111.949 300.548 111.789C301.62 111.005 302.604 110.013 303.5 108.813C304.396 107.597 305.1 106.317 305.612 104.973ZM305.54 109.149C306.068 110.157 306.788 111.189 307.7 112.245C308.628 113.285 309.732 114.245 311.012 115.125C312.308 116.005 313.748 116.701 315.332 117.213C315.14 117.389 314.924 117.621 314.684 117.909C314.444 118.197 314.22 118.493 314.012 118.797C313.804 119.101 313.628 119.381 313.484 119.637C312.284 119.157 311.164 118.573 310.124 117.885C309.1 117.181 308.164 116.413 307.316 115.581C306.484 114.733 305.74 113.869 305.084 112.989C304.444 112.093 303.908 111.221 303.476 110.373L305.54 109.149Z" fill="#5A5A5A"/>
<path d="M45.796 184.258H64.348V186.85H45.796V184.258ZM46.084 202.954H64.372V205.33H46.084V202.954ZM55.564 198.706H62.332V200.938H55.564V198.706ZM43.9 184.258H46.612V191.674C46.612 192.698 46.588 193.826 46.54 195.058C46.492 196.274 46.388 197.53 46.228 198.826C46.084 200.106 45.86 201.354 45.556 202.57C45.252 203.786 44.868 204.89 44.404 205.882C44.228 205.722 43.988 205.554 43.684 205.378C43.396 205.218 43.092 205.058 42.772 204.898C42.468 204.738 42.196 204.618 41.956 204.538C42.404 203.61 42.756 202.602 43.012 201.514C43.284 200.41 43.484 199.282 43.612 198.13C43.74 196.978 43.82 195.85 43.852 194.746C43.884 193.642 43.9 192.618 43.9 191.674V184.258ZM54.028 196.738H56.836V204.274H54.028V196.738ZM48.676 198.442H51.412V204.322H48.676V198.442ZM47.116 190.522H54.58V192.538H47.116V190.522ZM49.708 188.074H52.084V196.882H49.708V188.074ZM49.42 191.434L50.98 191.986C50.74 192.61 50.428 193.234 50.044 193.858C49.66 194.466 49.244 195.042 48.796 195.586C48.348 196.114 47.884 196.562 47.404 196.93C47.228 196.658 46.988 196.354 46.684 196.018C46.38 195.666 46.1 195.394 45.844 195.202C46.308 194.93 46.764 194.594 47.212 194.194C47.676 193.778 48.1 193.33 48.484 192.85C48.868 192.37 49.18 191.898 49.42 191.434ZM55.18 190.522H63.796V192.538H55.18V190.522ZM57.988 188.074H60.388V196.882H57.988V188.074ZM57.412 191.41L58.996 191.938C58.756 192.562 58.452 193.186 58.084 193.81C57.716 194.434 57.308 195.018 56.86 195.562C56.412 196.09 55.956 196.538 55.492 196.906C55.316 196.634 55.076 196.33 54.772 195.994C54.468 195.642 54.188 195.362 53.932 195.154C54.38 194.898 54.828 194.57 55.276 194.17C55.724 193.754 56.132 193.306 56.5 192.826C56.868 192.346 57.172 191.874 57.412 191.41ZM51.988 192.298C52.116 192.378 52.3 192.49 52.54 192.634C52.796 192.778 53.06 192.938 53.332 193.114C53.604 193.29 53.852 193.458 54.076 193.618C54.316 193.762 54.492 193.874 54.604 193.954L53.236 195.706C53.092 195.546 52.908 195.362 52.684 195.154C52.46 194.93 52.22 194.706 51.964 194.482C51.724 194.242 51.484 194.026 51.244 193.834C51.004 193.626 50.796 193.458 50.62 193.33L51.988 192.298ZM60.892 191.386C61.132 191.866 61.444 192.338 61.828 192.802C62.228 193.266 62.668 193.682 63.148 194.05C63.644 194.402 64.156 194.698 64.684 194.938C64.428 195.162 64.14 195.458 63.82 195.826C63.516 196.178 63.268 196.514 63.076 196.834C62.532 196.482 62.02 196.05 61.54 195.538C61.076 195.01 60.644 194.434 60.244 193.81C59.86 193.17 59.54 192.53 59.284 191.89L60.892 191.386ZM52.684 186.994L54.436 188.41C53.812 188.65 53.108 188.858 52.324 189.034C51.54 189.194 50.732 189.322 49.9 189.418C49.068 189.514 48.268 189.578 47.5 189.61C47.452 189.386 47.364 189.114 47.236 188.794C47.124 188.474 47.004 188.21 46.876 188.002C47.58 187.938 48.292 187.866 49.012 187.786C49.748 187.69 50.436 187.578 51.076 187.45C51.716 187.306 52.252 187.154 52.684 186.994ZM61.324 186.85L63.1 188.29C62.428 188.546 61.652 188.762 60.772 188.938C59.908 189.114 59.012 189.258 58.084 189.37C57.172 189.466 56.292 189.538 55.444 189.586C55.396 189.362 55.308 189.09 55.18 188.77C55.068 188.45 54.956 188.178 54.844 187.954C55.628 187.89 56.42 187.81 57.22 187.714C58.036 187.618 58.804 187.498 59.524 187.354C60.244 187.21 60.844 187.042 61.324 186.85ZM71.452 183.274L74.404 184.042C73.972 185.226 73.46 186.386 72.868 187.522C72.292 188.658 71.66 189.714 70.972 190.69C70.3 191.65 69.604 192.49 68.884 193.21C68.692 193.05 68.444 192.85 68.14 192.61C67.836 192.354 67.524 192.114 67.204 191.89C66.9 191.666 66.628 191.482 66.388 191.338C67.124 190.714 67.812 189.978 68.452 189.13C69.092 188.266 69.668 187.338 70.18 186.346C70.692 185.338 71.116 184.314 71.452 183.274ZM71.98 186.01H87.244V188.794H70.588L71.98 186.01ZM70.276 191.698H86.668V194.386H73.156V199.426H70.276V191.698ZM66.46 198.01H88.54V200.77H66.46V198.01ZM77.332 187.45H80.308V205.93H77.332V187.45ZM90.94 190.114H111.94V192.538H90.94V190.114ZM92.764 185.866H106.252V188.218H92.764V185.866ZM98.356 183.37H101.188V191.338H98.356V183.37ZM107.668 193.57L109.42 195.466C108.348 195.738 107.156 195.978 105.844 196.186C104.532 196.394 103.188 196.57 101.812 196.714C100.436 196.858 99.1 196.962 97.804 197.026C97.756 196.754 97.668 196.426 97.54 196.042C97.412 195.658 97.292 195.338 97.18 195.082C98.092 195.018 99.028 194.938 99.988 194.842C100.964 194.73 101.916 194.61 102.844 194.482C103.772 194.354 104.652 194.218 105.484 194.074C106.316 193.914 107.044 193.746 107.668 193.57ZM108.628 184.354L110.98 185.602C109.396 187.634 107.564 189.506 105.484 191.218C103.404 192.93 101.18 194.466 98.812 195.826C96.46 197.17 94.068 198.33 91.636 199.306C91.524 199.098 91.356 198.858 91.132 198.586C90.924 198.298 90.7 198.018 90.46 197.746C90.236 197.474 90.036 197.25 89.86 197.074C92.34 196.226 94.74 195.17 97.06 193.906C99.38 192.626 101.532 191.186 103.516 189.586C105.5 187.97 107.204 186.226 108.628 184.354ZM96.436 193.738L99.292 194.05C99.116 194.882 98.916 195.762 98.692 196.69C98.468 197.618 98.244 198.514 98.02 199.378C97.812 200.242 97.604 201.002 97.396 201.658L94.54 201.25C94.748 200.594 94.964 199.834 95.188 198.97C95.428 198.106 95.652 197.218 95.86 196.306C96.084 195.394 96.276 194.538 96.436 193.738ZM106.54 198.226H109.468C109.468 198.226 109.46 198.298 109.444 198.442C109.428 198.586 109.412 198.754 109.396 198.946C109.38 199.122 109.348 199.282 109.3 199.426C109.124 200.514 108.932 201.434 108.724 202.186C108.532 202.922 108.324 203.522 108.1 203.986C107.876 204.466 107.62 204.826 107.332 205.066C107.028 205.37 106.692 205.578 106.324 205.69C105.956 205.802 105.516 205.874 105.004 205.906C104.62 205.938 104.1 205.954 103.444 205.954C102.804 205.954 102.124 205.938 101.404 205.906C101.388 205.506 101.292 205.058 101.116 204.562C100.956 204.066 100.748 203.626 100.492 203.242C101.18 203.322 101.86 203.378 102.532 203.41C103.22 203.426 103.716 203.434 104.02 203.434C104.26 203.434 104.46 203.418 104.62 203.386C104.78 203.354 104.932 203.29 105.076 203.194C105.364 202.986 105.628 202.514 105.868 201.778C106.124 201.042 106.348 199.97 106.54 198.562V198.226ZM96.892 198.226H107.212V200.578H96.196L96.892 198.226ZM118.18 189.202V190.33H121.612V189.202H118.18ZM118.18 186.25V187.378H121.612V186.25H118.18ZM115.636 184.306H124.276V192.274H115.636V184.306ZM114.532 193.666H125.356V195.754H114.532V193.666ZM125.26 184.378H136.324V186.418H125.26V184.378ZM118.996 194.314H121.42V203.962L118.996 202.594V194.314ZM120.268 197.698H124.9V199.786H120.268V197.698ZM129.892 184.882L132.508 185.434C132.204 186.106 131.9 186.786 131.596 187.474C131.308 188.146 131.044 188.714 130.804 189.178L128.74 188.626C128.948 188.098 129.164 187.482 129.388 186.778C129.612 186.074 129.78 185.442 129.892 184.882ZM128.548 192.586V193.714H132.94V192.586H128.548ZM128.548 195.562V196.69H132.94V195.562H128.548ZM128.548 189.634V190.762H132.94V189.634H128.548ZM126.004 187.69H135.604V198.658H126.004V187.69ZM127.948 198.826L130.3 199.57C129.804 200.242 129.164 200.898 128.38 201.538C127.612 202.162 126.852 202.682 126.1 203.098C125.956 202.954 125.772 202.778 125.548 202.57C125.324 202.346 125.092 202.13 124.852 201.922C124.628 201.714 124.42 201.546 124.228 201.418C124.948 201.114 125.644 200.73 126.316 200.266C126.988 199.802 127.532 199.322 127.948 198.826ZM115.612 196.714H117.94C117.892 197.93 117.804 199.122 117.676 200.29C117.548 201.442 117.324 202.514 117.004 203.506C116.7 204.482 116.244 205.338 115.636 206.074C115.46 205.77 115.204 205.418 114.868 205.018C114.548 204.618 114.244 204.314 113.956 204.106C114.404 203.546 114.74 202.874 114.964 202.09C115.204 201.306 115.364 200.458 115.444 199.546C115.54 198.618 115.596 197.674 115.612 196.714ZM117.532 198.706C117.884 199.714 118.332 200.514 118.876 201.106C119.42 201.698 120.068 202.146 120.82 202.45C121.588 202.754 122.468 202.954 123.46 203.05C124.452 203.13 125.556 203.17 126.772 203.17C127.108 203.17 127.604 203.17 128.26 203.17C128.916 203.17 129.66 203.17 130.492 203.17C131.324 203.17 132.164 203.17 133.012 203.17C133.86 203.154 134.636 203.138 135.34 203.122C136.044 203.106 136.596 203.098 136.996 203.098C136.804 203.354 136.612 203.722 136.42 204.202C136.244 204.682 136.124 205.098 136.06 205.45H134.212H126.772C125.3 205.45 123.98 205.378 122.812 205.234C121.644 205.09 120.612 204.802 119.716 204.37C118.836 203.954 118.076 203.33 117.436 202.498C116.796 201.666 116.26 200.578 115.828 199.234L117.532 198.706ZM131.332 199.714L133.324 198.682C133.756 198.954 134.196 199.274 134.644 199.642C135.092 199.994 135.508 200.354 135.892 200.722C136.292 201.074 136.612 201.402 136.852 201.706L134.788 202.93C134.532 202.61 134.212 202.258 133.828 201.874C133.444 201.49 133.028 201.106 132.58 200.722C132.148 200.338 131.732 200.002 131.332 199.714Z" fill="#5A5A5A"/>
<path d="M223.148 267.575H229.508V270.095H223.148V267.575ZM221.852 262.919H224.588V280.751L221.852 281.207V262.919ZM220.196 280.175C220.98 280.015 221.868 279.823 222.86 279.599C223.868 279.359 224.932 279.103 226.052 278.831C227.172 278.559 228.284 278.287 229.388 278.015L229.724 280.703C228.748 280.991 227.748 281.279 226.724 281.567C225.7 281.855 224.708 282.127 223.748 282.383C222.788 282.655 221.892 282.903 221.06 283.127L220.196 280.175ZM226.148 276.335L228.452 275.207C228.964 275.879 229.46 276.615 229.94 277.415C230.436 278.199 230.876 278.975 231.26 279.743C231.66 280.511 231.956 281.207 232.148 281.831L229.604 283.103C229.444 282.495 229.18 281.799 228.812 281.015C228.444 280.231 228.028 279.431 227.564 278.615C227.1 277.783 226.628 277.023 226.148 276.335ZM223.124 262.919H231.212V274.727H223.124V272.063H228.548V265.583H223.124V262.919ZM238.892 262.871H241.892V277.415C241.892 278.103 241.812 278.687 241.652 279.167C241.508 279.631 241.22 279.999 240.788 280.271C240.356 280.527 239.844 280.695 239.252 280.775C238.676 280.839 237.996 280.871 237.212 280.871C237.18 280.583 237.116 280.247 237.02 279.863C236.924 279.463 236.804 279.079 236.66 278.711C236.516 278.327 236.372 277.999 236.228 277.727C236.692 277.759 237.14 277.775 237.572 277.775C238.02 277.775 238.332 277.767 238.508 277.751C238.652 277.751 238.748 277.727 238.796 277.679C238.86 277.615 238.892 277.503 238.892 277.343V262.871ZM232.556 262.871H240.452V265.775H235.484V284.231H232.556V262.871ZM253.772 264.287H266.06V266.783H253.772V264.287ZM252.98 268.895H266.756V271.415H252.98V268.895ZM253.028 273.455H266.588V275.975H253.028V273.455ZM258.404 261.695H261.26V270.527H258.404V261.695ZM261.452 271.295H264.284V281.231C264.284 281.919 264.196 282.455 264.02 282.839C263.844 283.239 263.524 283.551 263.06 283.775C262.596 283.983 262.028 284.111 261.356 284.159C260.7 284.223 259.924 284.255 259.028 284.255C258.964 283.855 258.844 283.391 258.668 282.863C258.492 282.351 258.308 281.911 258.116 281.543C258.708 281.559 259.284 281.575 259.844 281.591C260.404 281.591 260.78 281.591 260.972 281.591C261.148 281.591 261.268 281.567 261.332 281.519C261.412 281.455 261.452 281.335 261.452 281.159V271.295ZM253.988 277.607L256.268 276.287C256.652 276.655 257.036 277.071 257.42 277.535C257.804 277.999 258.156 278.463 258.476 278.927C258.796 279.391 259.044 279.815 259.22 280.199L256.724 281.663C256.596 281.279 256.38 280.855 256.076 280.391C255.772 279.911 255.436 279.431 255.068 278.951C254.716 278.455 254.356 278.007 253.988 277.607ZM246.38 263.207H252.548V279.623H246.38V277.055H249.884V265.775H246.38V263.207ZM246.524 270.023H251.18V272.543H246.524V270.023ZM245.012 263.207H247.676V281.759H245.012V263.207ZM269.396 264.047L270.668 262.079C271.212 262.207 271.796 262.375 272.42 262.583C273.044 262.775 273.652 262.983 274.244 263.207C274.852 263.415 275.356 263.615 275.756 263.807L274.46 265.991C274.076 265.799 273.596 265.583 273.02 265.343C272.444 265.087 271.836 264.847 271.196 264.623C270.556 264.399 269.956 264.207 269.396 264.047ZM268.34 268.103C269.22 267.943 270.276 267.719 271.508 267.431C272.756 267.143 274.012 266.855 275.276 266.567L275.54 268.823C274.5 269.159 273.444 269.479 272.372 269.783C271.316 270.071 270.332 270.343 269.42 270.599L268.34 268.103ZM278.972 263.327H288.188V265.367H277.364L278.972 263.327ZM287.516 263.327H287.924L288.356 263.231L290.252 263.735C289.948 264.375 289.588 265.031 289.172 265.703C288.772 266.375 288.38 266.935 287.996 267.383L285.74 266.687C286.06 266.303 286.388 265.831 286.724 265.271C287.06 264.695 287.324 264.159 287.516 263.663V263.327ZM281.444 264.191H284.012C283.9 265.039 283.708 265.815 283.436 266.519C283.164 267.207 282.764 267.823 282.236 268.367C281.724 268.895 281.028 269.359 280.148 269.759C279.284 270.159 278.172 270.495 276.812 270.767C276.7 270.463 276.516 270.111 276.26 269.711C276.004 269.295 275.756 268.967 275.516 268.727C276.668 268.535 277.612 268.303 278.348 268.031C279.084 267.759 279.652 267.447 280.052 267.095C280.468 266.727 280.78 266.303 280.988 265.823C281.196 265.343 281.348 264.799 281.444 264.191ZM283.868 264.791C283.964 265.239 284.124 265.671 284.348 266.087C284.588 266.503 284.948 266.887 285.428 267.239C285.908 267.575 286.58 267.879 287.444 268.151C288.308 268.407 289.42 268.615 290.78 268.775C290.508 269.063 290.236 269.439 289.964 269.903C289.692 270.367 289.484 270.783 289.34 271.151C287.852 270.911 286.628 270.575 285.668 270.143C284.724 269.711 283.98 269.223 283.436 268.679C282.908 268.135 282.5 267.551 282.212 266.927C281.94 266.287 281.724 265.655 281.564 265.031L283.868 264.791ZM278.9 261.719L281.444 262.151C280.98 263.095 280.436 264.007 279.812 264.887C279.188 265.751 278.42 266.551 277.508 267.287C277.252 267.031 276.908 266.775 276.476 266.519C276.06 266.263 275.676 266.063 275.324 265.919C276.204 265.311 276.94 264.639 277.532 263.903C278.124 263.151 278.58 262.423 278.9 261.719ZM274.388 274.799V275.807H284.828V274.799H274.388ZM274.388 277.439V278.495H284.828V277.439H274.388ZM274.388 272.135V273.167H284.828V272.135H274.388ZM271.604 270.431H287.732V280.199H271.604V270.431ZM280.844 281.471L283.244 280.103C284.108 280.407 284.98 280.735 285.86 281.087C286.756 281.423 287.604 281.767 288.404 282.119C289.22 282.455 289.908 282.759 290.468 283.031L287.108 284.327C286.66 284.071 286.1 283.775 285.428 283.439C284.756 283.103 284.028 282.759 283.244 282.407C282.476 282.071 281.676 281.759 280.844 281.471ZM275.54 280.007L278.156 281.207C277.516 281.623 276.764 282.031 275.9 282.431C275.036 282.831 274.148 283.191 273.236 283.511C272.324 283.847 271.46 284.127 270.644 284.351C270.468 284.159 270.252 283.927 269.996 283.655C269.756 283.399 269.5 283.135 269.228 282.863C268.956 282.607 268.716 282.399 268.508 282.239C269.356 282.079 270.212 281.887 271.076 281.663C271.956 281.439 272.78 281.183 273.548 280.895C274.332 280.607 274.996 280.311 275.54 280.007ZM301.604 262.679H310.916V265.415H301.604V262.679ZM301.316 270.743H308.948V273.431H301.316V270.743ZM303.956 264.503H306.692V270.575C306.692 271.711 306.644 272.879 306.548 274.079C306.452 275.279 306.252 276.479 305.948 277.679C305.66 278.879 305.22 280.039 304.628 281.159C304.036 282.263 303.252 283.303 302.276 284.279C302.132 284.071 301.932 283.831 301.676 283.559C301.42 283.303 301.156 283.055 300.884 282.815C300.628 282.575 300.388 282.383 300.164 282.239C301.012 281.391 301.692 280.487 302.204 279.527C302.716 278.567 303.092 277.583 303.332 276.575C303.588 275.551 303.756 274.535 303.836 273.527C303.916 272.503 303.956 271.503 303.956 270.527V264.503ZM309.404 262.679H312.356C312.324 264.039 312.3 265.431 312.284 266.855C312.268 268.279 312.26 269.671 312.26 271.031C312.276 272.375 312.308 273.647 312.356 274.847C312.404 276.031 312.468 277.087 312.548 278.015C312.644 278.927 312.756 279.663 312.884 280.223C313.012 280.767 313.172 281.063 313.364 281.111C313.428 281.127 313.484 280.975 313.532 280.655C313.58 280.335 313.62 279.919 313.652 279.407C313.7 278.895 313.732 278.367 313.748 277.823C313.892 278.063 314.06 278.343 314.252 278.663C314.444 278.983 314.636 279.279 314.828 279.551C315.02 279.823 315.188 280.031 315.332 280.175C315.204 281.423 314.98 282.367 314.66 283.007C314.356 283.647 313.988 284.039 313.556 284.183C313.124 284.327 312.644 284.287 312.116 284.063C311.54 283.855 311.076 283.303 310.724 282.407C310.372 281.527 310.108 280.399 309.932 279.023C309.756 277.631 309.628 276.063 309.548 274.319C309.484 272.559 309.444 270.687 309.428 268.703C309.412 266.719 309.404 264.711 309.404 262.679ZM293.348 269.087H300.596V271.271H293.348V269.087ZM293.444 262.487H300.548V264.647H293.444V262.487ZM293.348 272.375H300.596V274.535H293.348V272.375ZM292.22 265.703H301.388V267.983H292.22V265.703ZM294.596 275.687H300.644V283.007H294.596V280.727H298.172V277.967H294.596V275.687ZM293.3 275.687H295.724V283.943H293.3V275.687Z" fill="#5A5A5A"/>
</svg>
