<svg width="1329" height="1026" viewBox="0 0 1329 1026" fill="none" xmlns="http://www.w3.org/2000/svg">
<path d="M167.241 3.66699L329.5 80.5L162.5 159.5L0.00012207 82.5L167.241 3.66699Z" fill="#F5CFE5"/>
<path d="M0.00012207 82.4717L167.24 161.563V191.484L0.00012207 112.242V82.4717Z" fill="#F1B9D9"/>
<path d="M0.000488281 111L162 189V868L0 791.758L0.000488281 111Z" fill="#F1B9D9"/>
<path d="M167.241 191.484L334.481 112.364V82.4717L167.241 161.594V191.484Z" fill="#D9D9D9"/>
<path d="M328.545 80L493.096 158.162L325.738 236.977L161.362 158.807L328.545 80Z" fill="#F1BFE0"/>
<path d="M161.392 158.8L325.747 236.979L326 266.97L161.305 188.706L161.392 158.8Z" fill="#EDA5D4"/>
<path d="M161.305 187.465L328.545 266.556V948.5L161.305 869.258V187.465Z" fill="#EDA5D4"/>
<path d="M828.07 0L995.311 79.2422L828.07 158.484L660.503 79.1011L828.07 0Z" fill="#CDB5F1"/>
<path d="M994.928 79.0742L1161.71 158.176L994.928 237.141L827.761 157.898L994.928 79.0742Z" fill="#D5CAF6"/>
<path d="M827.751 157.889L994.928 236.553V266.396L827.753 186.982L827.751 157.889Z" fill="#C1B1F0"/>
<path d="M827.75 185.982L994.928 264.081V939L827.75 859.588L827.75 185.982Z" fill="#C1B1F0"/>
<path d="M1161.69 158.183L1328.49 237.216L1161.69 316.249L994.917 236.584L1161.69 158.183Z" fill="#E1E5FD"/>
<path d="M994.937 236.605L1161.69 315.662V345.505L994.887 266.471L994.937 236.605Z" fill="#C9D0FB"/>
<path d="M995 265.308L1161.8 344.19V1018L995 938.967V265.308Z" fill="#C9D0FB"/>
<path d="M1161.69 345.504L1328.49 266.592V236.779L1161.69 315.693V345.504Z" fill="#C9D0FB"/>
<path d="M1161.69 1008.41L1328.49 929.5V265.308L1161.69 344.221L1161.69 1008.41Z" fill="#C9D0FB"/>
<path d="M660.521 79.0918L827.77 157.895L660.19 237.07L492.982 158.183L660.521 79.0918Z" fill="#C198EA"/>
<path d="M660.206 265.453L827.762 187.639V157.896L660.244 237.003L660.206 265.453Z" fill="#AD82D8"/>
<path d="M660 940.621L828.762 861.5L827.756 185.603L660 263.547L660 940.621Z" fill="#AD82D8"/>
<path d="M493.06 158.149L660.242 237.002L492.972 316.667L325.742 236.969L493.06 158.149Z" fill="#E6ACE4"/>
<path d="M325.732 236.965L492.972 316.078V346L325.732 266.758V236.965Z" fill="#D79BD5"/>
<path d="M326 266L493.24 345.091V1026L326 946.758L326 266Z" fill="#D79BD5"/>
<path d="M492.973 346L660.213 265.513L660.257 236.986L492.973 316.11V346Z" fill="#D79BD5"/>
<path d="M492.973 1018.12L660.213 939V263.515L492.973 342.638L492.973 1018.12Z" fill="#D79BD5"/>
<path d="M105.24 97.24H118.48V100.92H105.24V97.24ZM107.24 75.88H119.72V79.36H107.24V75.88ZM101.88 90H121.84V102.52H117.12V93.64H106.44V102.52H101.88V90ZM107.36 78.72C108.293 79.7067 109.44 80.6267 110.8 81.48C112.187 82.3067 113.72 83.0533 115.4 83.72C117.08 84.3867 118.853 84.9733 120.72 85.48C122.587 85.9867 124.493 86.3867 126.44 86.68C125.96 87.1333 125.453 87.76 124.92 88.56C124.387 89.3333 123.96 90.0133 123.64 90.6C121.64 90.2 119.693 89.68 117.8 89.04C115.907 88.4 114.093 87.6533 112.36 86.8C110.653 85.92 109.067 84.9333 107.6 83.84C106.133 82.7467 104.827 81.56 103.68 80.28L107.36 78.72ZM118.84 75.88H119.72L120.44 75.64L123.48 77.52C122.333 79.28 120.907 80.8933 119.2 82.36C117.52 83.8 115.64 85.08 113.56 86.2C111.507 87.32 109.347 88.2933 107.08 89.12C104.84 89.92 102.573 90.6 100.28 91.16C100.067 90.6 99.7333 89.9467 99.28 89.2C98.8267 88.4267 98.3867 87.8133 97.96 87.36C100.067 86.96 102.173 86.4267 104.28 85.76C106.387 85.0667 108.387 84.2533 110.28 83.32C112.173 82.36 113.853 81.32 115.32 80.2C116.813 79.0533 117.987 77.8267 118.84 76.52V75.88ZM88.92 98.84C89.6667 98.12 90.4933 97.2667 91.4 96.28C92.3067 95.2933 93.24 94.24 94.2 93.12C95.16 92 96.0933 90.88 97 89.76L99.8 93.28C99.0533 94.2933 98.2533 95.3333 97.4 96.4C96.5733 97.44 95.7333 98.48 94.88 99.52C94.0267 100.56 93.1733 101.573 92.32 102.56L88.92 98.84ZM90.72 76.64L93.48 73.4C94.1467 73.7733 94.9067 74.2 95.76 74.68C96.64 75.16 97.4933 75.6267 98.32 76.08C99.1467 76.5333 99.84 76.9333 100.4 77.28L97.56 80.92C97.0267 80.5467 96.36 80.12 95.56 79.64C94.76 79.1333 93.92 78.6133 93.04 78.08C92.1867 77.5467 91.4133 77.0667 90.72 76.64ZM88.2 84.52L91 81.28C91.72 81.6533 92.5067 82.0933 93.36 82.6C94.2133 83.08 95.04 83.56 95.84 84.04C96.6667 84.52 97.3467 84.96 97.88 85.36L94.96 88.96C94.48 88.56 93.84 88.1067 93.04 87.6C92.2667 87.0667 91.4533 86.5333 90.6 86C89.7467 85.44 88.9467 84.9467 88.2 84.52ZM106.84 73.16L111.44 74.08C110.133 76.0267 108.64 77.9333 106.96 79.8C105.307 81.6667 103.413 83.4267 101.28 85.08C100.88 84.6 100.347 84.08 99.68 83.52C99.04 82.9333 98.4533 82.4933 97.92 82.2C99.92 80.8667 101.68 79.3867 103.2 77.76C104.747 76.1067 105.96 74.5733 106.84 73.16ZM97.2 65H101.88V74.08H97.2V65ZM112 65H116.68V74.08H112V65ZM89.2 67.24H106.04V71.48H89.2V67.24ZM108.04 67.24H124.8V71.4H108.04V67.24ZM148.04 83.92H164.4V102.4H159.8V88.28H152.36V102.56H148.04V83.92ZM153.36 65.08H158V85.12H153.36V65.08ZM156.12 73.32H165.76V77.76H156.12V73.32ZM150.32 96.64H161.96V101H150.32V96.64ZM133.2 69.44V78.2H142.92V69.44H133.2ZM129.64 66.24H146.64V81.4H129.64V66.24ZM133.12 71.16L135.12 70.6C135.44 71.5067 135.72 72.4933 135.96 73.56C136.2 74.6267 136.347 75.5467 136.4 76.32L134.28 77C134.253 76.2267 134.133 75.2933 133.92 74.2C133.707 73.1067 133.44 72.0933 133.12 71.16ZM134.36 94.52L137.32 94.2C137.507 95.32 137.64 96.5333 137.72 97.84C137.827 99.12 137.867 100.24 137.84 101.2L134.76 101.56C134.813 100.6 134.8 99.4667 134.72 98.16C134.64 96.8533 134.52 95.64 134.36 94.52ZM138.44 94.44L141.28 93.92C141.653 94.9867 142 96.1333 142.32 97.36C142.64 98.56 142.853 99.6267 142.96 100.56L139.96 101.16C139.907 100.253 139.733 99.1733 139.44 97.92C139.147 96.6667 138.813 95.5067 138.44 94.44ZM142.44 94.36L145.32 93.32C145.907 94.3067 146.467 95.4 147 96.6C147.533 97.7733 147.907 98.8 148.12 99.68L145.08 100.88C144.893 99.9733 144.547 98.92 144.04 97.72C143.56 96.4933 143.027 95.3733 142.44 94.36ZM130.48 93.32L133.68 94.52C133.413 95.7467 133.08 97.0533 132.68 98.44C132.307 99.8267 131.84 101 131.28 101.96L127.96 100.6C128.333 99.9867 128.68 99.2667 129 98.44C129.347 97.6133 129.64 96.76 129.88 95.88C130.12 94.9733 130.32 94.12 130.48 93.32ZM140.96 70.56L143.36 71.36C142.987 72.32 142.6 73.3333 142.2 74.4C141.827 75.4667 141.48 76.36 141.16 77.08L139.36 76.4C139.573 75.84 139.773 75.2267 139.96 74.56C140.173 73.8667 140.373 73.1733 140.56 72.48C140.747 71.76 140.88 71.12 140.96 70.56ZM129.72 83.12H146.56V86.76H129.72V83.12ZM136.56 67.88H139.44V79.92H140.12V90.36H135.88V79.92H136.56V67.88ZM128.92 88.76H147.12V92.4H128.92V88.76ZM174.8 79.72H196.44V84.36H174.8V79.72ZM194.84 79.72H199.88C199.88 79.72 199.88 79.8533 199.88 80.12C199.88 80.36 199.88 80.6533 199.88 81C199.88 81.32 199.867 81.5867 199.84 81.8C199.733 84.8133 199.613 87.4133 199.48 89.6C199.347 91.76 199.187 93.56 199 95C198.84 96.44 198.64 97.5867 198.4 98.44C198.16 99.2933 197.867 99.9333 197.52 100.36C196.987 101 196.427 101.453 195.84 101.72C195.28 101.987 194.613 102.173 193.84 102.28C193.173 102.387 192.293 102.44 191.2 102.44C190.107 102.467 188.96 102.453 187.76 102.4C187.733 101.68 187.573 100.853 187.28 99.92C186.987 99.0133 186.627 98.2267 186.2 97.56C187.32 97.64 188.36 97.6933 189.32 97.72C190.28 97.7467 191 97.76 191.48 97.76C191.853 97.76 192.16 97.7333 192.4 97.68C192.64 97.6 192.88 97.44 193.12 97.2C193.44 96.8533 193.693 96.0933 193.88 94.92C194.093 93.72 194.28 91.96 194.44 89.64C194.6 87.2933 194.733 84.2667 194.84 80.56V79.72ZM181.92 81.08H187.16C186.973 83.32 186.667 85.5067 186.24 87.64C185.813 89.7733 185.107 91.7867 184.12 93.68C183.16 95.5733 181.76 97.3067 179.92 98.88C178.107 100.427 175.707 101.747 172.72 102.84C172.533 102.387 172.267 101.893 171.92 101.36C171.573 100.827 171.2 100.293 170.8 99.76C170.4 99.2533 170 98.8133 169.6 98.44C172.293 97.5867 174.427 96.5333 176 95.28C177.573 94 178.76 92.6133 179.56 91.12C180.36 89.6 180.907 87.9867 181.2 86.28C181.52 84.5733 181.76 82.84 181.92 81.08ZM177.68 66.4L182.76 67.6C181.987 69.92 181.027 72.1333 179.88 74.24C178.76 76.3467 177.507 78.28 176.12 80.04C174.76 81.8 173.307 83.32 171.76 84.6C171.493 84.28 171.107 83.8933 170.6 83.44C170.093 82.9867 169.587 82.5467 169.08 82.12C168.573 81.6667 168.12 81.3067 167.72 81.04C170.013 79.44 172.013 77.3467 173.72 74.76C175.453 72.1733 176.773 69.3867 177.68 66.4ZM184.84 65.64H194V70.08H184.84V65.64ZM189.4 65.64H194.72C195.333 67.5867 196.187 69.48 197.28 71.32C198.373 73.16 199.68 74.84 201.2 76.36C202.72 77.88 204.413 79.12 206.28 80.08C205.96 80.4 205.573 80.8267 205.12 81.36C204.693 81.8933 204.28 82.44 203.88 83C203.48 83.56 203.147 84.0667 202.88 84.52C200.907 83.2667 199.107 81.76 197.48 80C195.853 78.24 194.44 76.3467 193.24 74.32C192.067 72.2667 191.12 70.2133 190.4 68.16H189.4V65.64ZM228.36 78.52H245.76V83.04H228.36V78.52ZM239.56 65.44L243.64 69.2C242.093 69.84 240.413 70.4267 238.6 70.96C236.787 71.4933 234.933 71.96 233.04 72.36C231.173 72.76 229.36 73.1067 227.6 73.4C227.493 72.84 227.28 72.1733 226.96 71.4C226.667 70.6 226.36 69.9467 226.04 69.44C227.693 69.12 229.347 68.76 231 68.36C232.653 67.9333 234.213 67.4667 235.68 66.96C237.173 66.4533 238.467 65.9467 239.56 65.44ZM235.84 79.92H240.6V102.56H235.84V79.92ZM208.92 73.28H224.44V77.8H208.92V73.28ZM214.32 65H218.92V102.56H214.32V65ZM214.12 76.36L216.96 77.32C216.64 78.9467 216.24 80.6133 215.76 82.32C215.307 84.0267 214.787 85.7067 214.2 87.36C213.613 89.0133 212.973 90.56 212.28 92C211.587 93.4133 210.853 94.64 210.08 95.68C209.84 94.9867 209.493 94.2133 209.04 93.36C208.587 92.5067 208.173 91.7867 207.8 91.2C208.493 90.32 209.16 89.2933 209.8 88.12C210.467 86.9467 211.067 85.7067 211.6 84.4C212.16 83.0667 212.653 81.72 213.08 80.36C213.507 78.9733 213.853 77.64 214.12 76.36ZM218.4 78.68C218.667 78.9733 219.067 79.48 219.6 80.2C220.16 80.92 220.76 81.7067 221.4 82.56C222.04 83.4133 222.613 84.2 223.12 84.92C223.653 85.64 224.027 86.1467 224.24 86.44L221.44 90.24C221.173 89.6 220.813 88.8533 220.36 88C219.907 87.1467 219.427 86.2667 218.92 85.36C218.413 84.4533 217.92 83.6133 217.44 82.84C216.96 82.04 216.547 81.3867 216.2 80.88L218.4 78.68ZM226.04 69.44H230.6V81.32C230.6 82.8933 230.533 84.6133 230.4 86.48C230.293 88.32 230.08 90.2 229.76 92.12C229.44 94.0133 228.987 95.8533 228.4 97.64C227.813 99.4267 227.027 101.04 226.04 102.48C225.747 102.24 225.36 101.96 224.88 101.64C224.4 101.32 223.893 101.013 223.36 100.72C222.853 100.427 222.413 100.213 222.04 100.08C222.973 98.7467 223.707 97.2933 224.24 95.72C224.773 94.12 225.16 92.4933 225.4 90.84C225.667 89.16 225.84 87.5067 225.92 85.88C226 84.2533 226.04 82.7333 226.04 81.32V69.44Z" fill="#343A40"/>
<path d="M422.36 226.88H427.16V238.04C427.16 239.907 427.04 241.787 426.8 243.68C426.587 245.573 426.12 247.427 425.4 249.24C424.707 251.027 423.667 252.72 422.28 254.32C420.92 255.92 419.08 257.36 416.76 258.64C416.52 258.267 416.2 257.84 415.8 257.36C415.4 256.907 414.973 256.453 414.52 256C414.067 255.547 413.653 255.187 413.28 254.92C415.307 253.853 416.92 252.653 418.12 251.32C419.32 249.987 420.227 248.587 420.84 247.12C421.453 245.653 421.853 244.147 422.04 242.6C422.253 241.027 422.36 239.48 422.36 237.96V226.88ZM437.32 221.64H442.24V258.56H437.32V221.64ZM413.68 236.84H450.4V241.44H413.68V236.84ZM431.08 221.2L434.48 225.24C432.72 226.12 430.773 226.947 428.64 227.72C426.533 228.467 424.36 229.147 422.12 229.76C419.907 230.373 417.72 230.92 415.56 231.4C415.453 230.84 415.227 230.173 414.88 229.4C414.56 228.627 414.24 227.973 413.92 227.44C416.027 226.96 418.12 226.4 420.2 225.76C422.28 225.093 424.253 224.373 426.12 223.6C428.013 222.827 429.667 222.027 431.08 221.2ZM453.8 247.4H490.12V251.24H453.8V247.4ZM461.6 240.6H479.16V243.96H461.6V240.6ZM470.08 246.32H474.8V254.12C474.8 255.16 474.653 255.973 474.36 256.56C474.067 257.173 473.507 257.64 472.68 257.96C471.853 258.253 470.88 258.427 469.76 258.48C468.64 258.533 467.32 258.56 465.8 258.56C465.693 257.92 465.493 257.227 465.2 256.48C464.907 255.733 464.6 255.08 464.28 254.52C464.947 254.547 465.613 254.573 466.28 254.6C466.973 254.6 467.587 254.6 468.12 254.6C468.68 254.6 469.053 254.6 469.24 254.6C469.56 254.573 469.773 254.52 469.88 254.44C470.013 254.36 470.08 254.2 470.08 253.96V246.32ZM477.96 240.6H479.08L480.08 240.36L482.8 242.84C481.813 243.56 480.733 244.28 479.56 245C478.387 245.693 477.173 246.36 475.92 247C474.693 247.64 473.453 248.227 472.2 248.76C471.987 248.36 471.653 247.933 471.2 247.48C470.747 247 470.373 246.613 470.08 246.32C471.013 245.893 471.987 245.4 473 244.84C474.013 244.253 474.96 243.667 475.84 243.08C476.72 242.467 477.427 241.907 477.96 241.4V240.6ZM454.52 235.4H489.6V243.64H484.84V238.88H459.04V243.64H454.52V235.4ZM482.96 222.32H487.52C487.44 223.973 487.347 225.707 487.24 227.52C487.133 229.307 487.013 231.04 486.88 232.72C486.747 234.4 486.6 235.867 486.44 237.12H481.8C481.987 235.813 482.16 234.32 482.32 232.64C482.48 230.96 482.613 229.227 482.72 227.44C482.827 225.627 482.907 223.92 482.96 222.32ZM477.4 222.32H484.8V225.32H477.4V222.32ZM464.92 221.2L466.88 224C465.627 224.48 464.213 224.893 462.64 225.24C461.067 225.587 459.667 225.853 458.44 226.04L456.8 223.44C457.6 223.28 458.493 223.08 459.48 222.84C460.467 222.573 461.44 222.307 462.4 222.04C463.36 221.747 464.2 221.467 464.92 221.2ZM459.12 226.72H466.6V229.68H459.12V226.72ZM459.2 231.04H466.68V234.04H459.2V231.04ZM477.68 226.72H484.4V229.68H477.68V226.72ZM477.44 231.04H484.16V234.04H477.44V231.04ZM473.52 221.24L476.6 222.16C475.72 223.387 474.587 224.547 473.2 225.64C471.813 226.733 470.44 227.64 469.08 228.36C468.813 228.067 468.427 227.693 467.92 227.24C467.413 226.787 466.973 226.44 466.6 226.2C467.96 225.613 469.267 224.893 470.52 224.04C471.773 223.16 472.773 222.227 473.52 221.24ZM467.44 223.4L469.6 221.56C470.427 221.933 471.293 222.387 472.2 222.92C473.107 223.427 473.96 223.947 474.76 224.48C475.56 225.013 476.213 225.507 476.72 225.96L474.44 228C473.96 227.547 473.32 227.04 472.52 226.48C471.747 225.92 470.907 225.373 470 224.84C469.12 224.307 468.267 223.827 467.44 223.4ZM473.56 228L476.68 228.96C475.72 230.293 474.507 231.547 473.04 232.72C471.573 233.867 470.107 234.827 468.64 235.6C468.4 235.307 468.027 234.907 467.52 234.4C467.013 233.893 466.587 233.507 466.24 233.24C467.653 232.627 469.027 231.867 470.36 230.96C471.72 230.027 472.787 229.04 473.56 228ZM467.2 230.24L469.44 228.4C470.293 228.827 471.2 229.32 472.16 229.88C473.12 230.413 474.027 230.973 474.88 231.56C475.733 232.147 476.427 232.707 476.96 233.24L474.6 235.32C474.12 234.787 473.453 234.227 472.6 233.64C471.773 233.027 470.88 232.427 469.92 231.84C468.987 231.227 468.08 230.693 467.2 230.24ZM456.8 223.44L461.32 224.6L462.04 236.96H457.6L456.8 223.44ZM493.64 225.76H508.84V230.36H493.64V225.76ZM498.72 227.84H503.48V247.76H498.72V227.84ZM492.96 247.04C494.293 246.8 495.84 246.493 497.6 246.12C499.387 245.72 501.28 245.293 503.28 244.84C505.307 244.36 507.307 243.893 509.28 243.44L509.8 247.72C507.08 248.467 504.333 249.227 501.56 250C498.787 250.747 496.293 251.427 494.08 252.04L492.96 247.04ZM512.36 228.12H530.68V232.72H512.36V228.12ZM513.36 220.92L518.08 221.88C517.467 224.387 516.72 226.84 515.84 229.24C514.987 231.64 514.027 233.867 512.96 235.92C511.92 237.973 510.787 239.773 509.56 241.32C509.293 241.053 508.907 240.733 508.4 240.36C507.893 239.987 507.373 239.627 506.84 239.28C506.307 238.933 505.853 238.653 505.48 238.44C506.707 237.08 507.813 235.48 508.8 233.64C509.787 231.773 510.667 229.76 511.44 227.6C512.213 225.413 512.853 223.187 513.36 220.92ZM523 231.12L527.92 231.88C527.253 235.453 526.347 238.653 525.2 241.48C524.053 244.307 522.627 246.813 520.92 249C519.213 251.16 517.173 253.04 514.8 254.64C512.453 256.213 509.72 257.547 506.6 258.64C506.467 258.24 506.24 257.76 505.92 257.2C505.627 256.667 505.307 256.12 504.96 255.56C504.613 255 504.307 254.547 504.04 254.2C507.88 253.027 511.067 251.453 513.6 249.48C516.16 247.48 518.187 244.973 519.68 241.96C521.2 238.947 522.307 235.333 523 231.12ZM514.6 231.64C515.32 235.24 516.373 238.533 517.76 241.52C519.147 244.507 520.947 247.093 523.16 249.28C525.373 251.44 528.093 253.107 531.32 254.28C530.973 254.6 530.587 255.013 530.16 255.52C529.733 256.027 529.32 256.547 528.92 257.08C528.547 257.64 528.24 258.147 528 258.6C524.533 257.16 521.64 255.2 519.32 252.72C517 250.24 515.12 247.307 513.68 243.92C512.24 240.507 511.053 236.693 510.12 232.48L514.6 231.64ZM537.16 223.36H548.68V250.72H537.16V246.6H545.04V227.48H537.16V223.36ZM534.72 223.36H538.24V254H534.72V223.36ZM536.64 234.64H546.88V238.56H536.64V234.64ZM553.8 253.08H566.16V257.28H553.8V253.08ZM555 224.96H565.68V228.96H555V224.96ZM540.12 225.8H543.08V248.4H540.12V225.8ZM551.04 243.72H568.36V258.52H563.72V247.88H555.48V258.56H551.04V243.72ZM564.64 224.96H565.48L566.28 224.76L569.4 226.32C568.547 228.667 567.44 230.84 566.08 232.84C564.747 234.813 563.227 236.613 561.52 238.24C559.84 239.867 558.027 241.32 556.08 242.6C554.133 243.853 552.12 244.933 550.04 245.84C549.747 245.253 549.32 244.6 548.76 243.88C548.227 243.133 547.72 242.533 547.24 242.08C549.133 241.387 550.973 240.493 552.76 239.4C554.547 238.307 556.213 237.053 557.76 235.64C559.307 234.227 560.667 232.693 561.84 231.04C563.04 229.36 563.973 227.613 564.64 225.8V224.96ZM555.52 220.92L560.08 222.2C559.36 223.96 558.493 225.68 557.48 227.36C556.467 229.013 555.373 230.547 554.2 231.96C553.027 233.373 551.827 234.613 550.6 235.68C550.36 235.36 550.027 234.987 549.6 234.56C549.173 234.133 548.733 233.72 548.28 233.32C547.827 232.893 547.427 232.547 547.08 232.28C548.867 230.973 550.507 229.32 552 227.32C553.493 225.293 554.667 223.16 555.52 220.92ZM555.4 227.88C556.28 229.56 557.48 231.28 559 233.04C560.547 234.773 562.387 236.373 564.52 237.84C566.68 239.307 569.08 240.467 571.72 241.32C571.4 241.613 571.04 242 570.64 242.48C570.24 242.96 569.867 243.453 569.52 243.96C569.173 244.467 568.88 244.933 568.64 245.36C566.64 244.56 564.773 243.587 563.04 242.44C561.333 241.267 559.773 239.987 558.36 238.6C556.973 237.187 555.733 235.747 554.64 234.28C553.573 232.787 552.68 231.333 551.96 229.92L555.4 227.88Z" fill="#343A40"/>
<path d="M754.66 63.48H785.58V67.8H754.66V63.48ZM755.14 94.64H785.62V98.6H755.14V94.64ZM770.94 87.56H782.22V91.28H770.94V87.56ZM751.5 63.48H756.02V75.84C756.02 77.5467 755.98 79.4267 755.9 81.48C755.82 83.5067 755.647 85.6 755.38 87.76C755.14 89.8933 754.767 91.9733 754.26 94C753.753 96.0267 753.113 97.8667 752.34 99.52C752.047 99.2533 751.647 98.9733 751.14 98.68C750.66 98.4133 750.153 98.1467 749.62 97.88C749.113 97.6133 748.66 97.4133 748.26 97.28C749.007 95.7333 749.593 94.0533 750.02 92.24C750.473 90.4 750.807 88.52 751.02 86.6C751.233 84.68 751.367 82.8 751.42 80.96C751.473 79.12 751.5 77.4133 751.5 75.84V63.48ZM768.38 84.28H773.06V96.84H768.38V84.28ZM759.46 87.12H764.02V96.92H759.46V87.12ZM756.86 73.92H769.3V77.28H756.86V73.92ZM761.18 69.84H765.14V84.52H761.18V69.84ZM760.7 75.44L763.3 76.36C762.9 77.4 762.38 78.44 761.74 79.48C761.1 80.4933 760.407 81.4533 759.66 82.36C758.913 83.24 758.14 83.9867 757.34 84.6C757.047 84.1467 756.647 83.64 756.14 83.08C755.633 82.4933 755.167 82.04 754.74 81.72C755.513 81.2667 756.273 80.7067 757.02 80.04C757.793 79.3467 758.5 78.6 759.14 77.8C759.78 77 760.3 76.2133 760.7 75.44ZM770.3 73.92H784.66V77.28H770.3V73.92ZM774.98 69.84H778.98V84.52H774.98V69.84ZM774.02 75.4L776.66 76.28C776.26 77.32 775.753 78.36 775.14 79.4C774.527 80.44 773.847 81.4133 773.1 82.32C772.353 83.2 771.593 83.9467 770.82 84.56C770.527 84.1067 770.127 83.6 769.62 83.04C769.113 82.4533 768.647 81.9867 768.22 81.64C768.967 81.2133 769.713 80.6667 770.46 80C771.207 79.3067 771.887 78.56 772.5 77.76C773.113 76.96 773.62 76.1733 774.02 75.4ZM764.98 76.88C765.193 77.0133 765.5 77.2 765.9 77.44C766.327 77.68 766.767 77.9467 767.22 78.24C767.673 78.5333 768.087 78.8133 768.46 79.08C768.86 79.32 769.153 79.5067 769.34 79.64L767.06 82.56C766.82 82.2933 766.513 81.9867 766.14 81.64C765.767 81.2667 765.367 80.8933 764.94 80.52C764.54 80.12 764.14 79.76 763.74 79.44C763.34 79.0933 762.993 78.8133 762.7 78.6L764.98 76.88ZM766.14 68.04L769.06 70.4C768.02 70.8 766.847 71.1467 765.54 71.44C764.233 71.7067 762.887 71.92 761.5 72.08C760.113 72.24 758.78 72.3467 757.5 72.4C757.42 72.0267 757.273 71.5733 757.06 71.04C756.873 70.5067 756.673 70.0667 756.46 69.72C757.633 69.6133 758.82 69.4933 760.02 69.36C761.247 69.2 762.393 69.0133 763.46 68.8C764.527 68.56 765.42 68.3067 766.14 68.04ZM780.54 67.8L783.5 70.2C782.38 70.6267 781.087 70.9867 779.62 71.28C778.18 71.5733 776.687 71.8133 775.14 72C773.62 72.16 772.153 72.28 770.74 72.36C770.66 71.9867 770.513 71.5333 770.3 71C770.113 70.4667 769.927 70.0133 769.74 69.64C771.047 69.5333 772.367 69.4 773.7 69.24C775.06 69.08 776.34 68.88 777.54 68.64C778.74 68.4 779.74 68.12 780.54 67.8ZM779.1 77C779.447 77.16 779.927 77.4533 780.54 77.88C781.18 78.28 781.86 78.72 782.58 79.2C783.327 79.68 784.007 80.1333 784.62 80.56C785.233 80.96 785.673 81.2533 785.94 81.44L783.82 84.56C783.42 84.16 782.927 83.7067 782.34 83.2C781.753 82.6933 781.127 82.1733 780.46 81.64C779.793 81.08 779.153 80.56 778.54 80.08C777.927 79.6 777.407 79.2267 776.98 78.96L779.1 77ZM797.42 61.84L802.34 63.12C801.62 65.0933 800.767 67.0267 799.78 68.92C798.82 70.8133 797.767 72.5733 796.62 74.2C795.5 75.8 794.34 77.2 793.14 78.4C792.82 78.1333 792.407 77.8 791.9 77.4C791.393 76.9733 790.873 76.5733 790.34 76.2C789.833 75.8267 789.38 75.52 788.98 75.28C790.207 74.24 791.353 73.0133 792.42 71.6C793.487 70.16 794.447 68.6133 795.3 66.96C796.153 65.28 796.86 63.5733 797.42 61.84ZM798.3 66.4H823.74V71.04H795.98L798.3 66.4ZM795.46 75.88H822.78V80.36H800.26V88.76H795.46V75.88ZM789.1 86.4H825.9V91H789.1V86.4ZM807.22 68.8H812.18V99.6H807.22V68.8ZM855.26 86.8H860.14C860.14 86.8 860.127 86.92 860.1 87.16C860.073 87.4 860.033 87.68 859.98 88C859.953 88.2933 859.913 88.5467 859.86 88.76C859.433 91.4 858.967 93.44 858.46 94.88C857.953 96.32 857.34 97.36 856.62 98C856.033 98.5067 855.393 98.8533 854.7 99.04C854.033 99.2533 853.207 99.3867 852.22 99.44C851.473 99.4667 850.473 99.4667 849.22 99.44C847.993 99.44 846.66 99.4267 845.22 99.4C845.193 98.7067 845.033 97.9467 844.74 97.12C844.447 96.2933 844.073 95.5733 843.62 94.96C844.553 95.0133 845.487 95.0667 846.42 95.12C847.38 95.1733 848.247 95.2133 849.02 95.24C849.793 95.24 850.393 95.24 850.82 95.24C851.273 95.24 851.66 95.2267 851.98 95.2C852.3 95.1467 852.58 95.04 852.82 94.88C853.3 94.5333 853.74 93.76 854.14 92.56C854.567 91.3333 854.927 89.6 855.22 87.36L855.26 86.8ZM842.06 86.8H856.66V90.68H840.9L842.06 86.8ZM842.3 80.2H861.26V83.88H841.18L842.3 80.2ZM830.22 73.24H865.3V77.28H830.22V73.24ZM833.62 66.16H855.9V70.08H833.62V66.16ZM843.1 62H847.86V75.28H843.1V62ZM860.06 63.64L863.78 65.76C861.807 68.2933 859.567 70.6933 857.06 72.96C854.553 75.2 851.86 77.3067 848.98 79.28C846.127 81.2267 843.153 83.0133 840.06 84.64C836.993 86.2667 833.887 87.6933 830.74 88.92C830.66 88.5467 830.513 88.0933 830.3 87.56C830.087 87.0267 829.86 86.4933 829.62 85.96C829.38 85.4 829.14 84.9467 828.9 84.6C831.913 83.56 834.887 82.3333 837.82 80.92C840.78 79.48 843.607 77.8667 846.3 76.08C849.02 74.2667 851.54 72.32 853.86 70.24C856.207 68.1333 858.273 65.9333 860.06 63.64ZM841.62 82.2H846.5C845.86 83.6933 845.167 85.2133 844.42 86.76C843.7 88.28 843.06 89.5867 842.5 90.68H837.38C838.1 89.5067 838.833 88.1467 839.58 86.6C840.353 85.0533 841.033 83.5867 841.62 82.2ZM875.3 71.72V73.6H881.02V71.72H875.3ZM875.3 66.8V68.68H881.02V66.8H875.3ZM871.06 63.56H885.46V76.84H871.06V63.56ZM869.22 79.16H887.26V82.64H869.22V79.16ZM887.1 63.68H905.54V67.08H887.1V63.68ZM876.66 80.24H880.7V96.32L876.66 94.04V80.24ZM878.78 85.88H886.5V89.36H878.78V85.88ZM894.82 64.52L899.18 65.44C898.673 66.56 898.167 67.6933 897.66 68.84C897.18 69.96 896.74 70.9067 896.34 71.68L892.9 70.76C893.247 69.88 893.607 68.8533 893.98 67.68C894.353 66.5067 894.633 65.4533 894.82 64.52ZM892.58 77.36V79.24H899.9V77.36H892.58ZM892.58 82.32V84.2H899.9V82.32H892.58ZM892.58 72.44V74.32H899.9V72.44H892.58ZM888.34 69.2H904.34V87.48H888.34V69.2ZM891.58 87.76L895.5 89C894.673 90.12 893.607 91.2133 892.3 92.28C891.02 93.32 889.753 94.1867 888.5 94.88C888.26 94.64 887.953 94.3467 887.58 94C887.207 93.6267 886.82 93.2667 886.42 92.92C886.047 92.5733 885.7 92.2933 885.38 92.08C886.58 91.5733 887.74 90.9333 888.86 90.16C889.98 89.3867 890.887 88.5867 891.58 87.76ZM871.02 84.24H874.9C874.82 86.2667 874.673 88.2533 874.46 90.2C874.247 92.12 873.873 93.9067 873.34 95.56C872.833 97.1867 872.073 98.6133 871.06 99.84C870.767 99.3333 870.34 98.7467 869.78 98.08C869.247 97.4133 868.74 96.9067 868.26 96.56C869.007 95.6267 869.567 94.5067 869.94 93.2C870.34 91.8933 870.607 90.48 870.74 88.96C870.9 87.4133 870.993 85.84 871.02 84.24ZM874.22 87.56C874.807 89.24 875.553 90.5733 876.46 91.56C877.367 92.5467 878.447 93.2933 879.7 93.8C880.98 94.3067 882.447 94.64 884.1 94.8C885.753 94.9333 887.593 95 889.62 95C890.18 95 891.007 95 892.1 95C893.193 95 894.433 95 895.82 95C897.207 95 898.607 95 900.02 95C901.433 94.9733 902.727 94.9467 903.9 94.92C905.073 94.8933 905.993 94.88 906.66 94.88C906.34 95.3067 906.02 95.92 905.7 96.72C905.407 97.52 905.207 98.2133 905.1 98.8H902.02H889.62C887.167 98.8 884.967 98.68 883.02 98.44C881.073 98.2 879.353 97.72 877.86 97C876.393 96.3067 875.127 95.2667 874.06 93.88C872.993 92.4933 872.1 90.68 871.38 88.44L874.22 87.56ZM897.22 89.24L900.54 87.52C901.26 87.9733 901.993 88.5067 902.74 89.12C903.487 89.7067 904.18 90.3067 904.82 90.92C905.487 91.5067 906.02 92.0533 906.42 92.56L902.98 94.6C902.553 94.0667 902.02 93.48 901.38 92.84C900.74 92.2 900.047 91.56 899.3 90.92C898.58 90.28 897.887 89.72 897.22 89.24Z" fill="#343A40"/>
<path d="M1089.78 230.72H1101.94V234.96H1089.78V230.72ZM1089.66 223.04H1105.1V242.92H1089.66V238.64H1100.26V227.32H1089.66V223.04ZM1088.14 257.72L1087.66 253.44L1089.54 251.84L1100.94 248.56C1101.1 249.2 1101.33 249.92 1101.62 250.72C1101.91 251.493 1102.17 252.133 1102.38 252.64C1099.58 253.547 1097.3 254.28 1095.54 254.84C1093.81 255.4 1092.45 255.853 1091.46 256.2C1090.5 256.547 1089.78 256.827 1089.3 257.04C1088.85 257.28 1088.46 257.507 1088.14 257.72ZM1096.5 245.92L1100.66 243.92C1101.33 244.987 1102.02 246.16 1102.74 247.44C1103.46 248.693 1104.13 249.933 1104.74 251.16C1105.35 252.36 1105.83 253.44 1106.18 254.4L1101.74 256.76C1101.42 255.8 1100.97 254.707 1100.38 253.48C1099.82 252.227 1099.19 250.947 1098.5 249.64C1097.83 248.307 1097.17 247.067 1096.5 245.92ZM1088.14 257.72C1088.06 257.267 1087.91 256.72 1087.7 256.08C1087.51 255.467 1087.29 254.867 1087.02 254.28C1086.78 253.693 1086.53 253.2 1086.26 252.8C1086.71 252.587 1087.14 252.267 1087.54 251.84C1087.94 251.413 1088.14 250.813 1088.14 250.04V223.04H1093.06V254.04C1093.06 254.04 1092.89 254.107 1092.54 254.24C1092.22 254.373 1091.82 254.56 1091.34 254.8C1090.86 255.04 1090.37 255.32 1089.86 255.64C1089.38 255.96 1088.97 256.293 1088.62 256.64C1088.3 256.987 1088.14 257.347 1088.14 257.72ZM1116.98 223.32H1121.7V246.44C1121.7 247.507 1121.58 248.387 1121.34 249.08C1121.13 249.747 1120.69 250.28 1120.02 250.68C1119.35 251.053 1118.55 251.28 1117.62 251.36C1116.69 251.44 1115.57 251.48 1114.26 251.48C1114.18 250.84 1114.02 250.08 1113.78 249.2C1113.54 248.32 1113.26 247.573 1112.94 246.96C1113.66 246.987 1114.34 247.013 1114.98 247.04C1115.65 247.04 1116.1 247.027 1116.34 247C1116.58 246.973 1116.74 246.92 1116.82 246.84C1116.93 246.76 1116.98 246.6 1116.98 246.36V223.32ZM1107.34 223.32H1119.26V227.72H1112.14V258.6H1107.34V223.32ZM1141.58 233.28H1162.06V237.44H1141.58V233.28ZM1140.3 225.28H1163.18V229.48H1140.3V225.28ZM1140.38 240.56H1162.98V244.76H1140.38V240.56ZM1149.34 220.96H1154.1V235.68H1149.34V220.96ZM1154.42 236.96H1159.14V253.52C1159.14 254.667 1158.99 255.56 1158.7 256.2C1158.41 256.867 1157.87 257.387 1157.1 257.76C1156.33 258.107 1155.38 258.32 1154.26 258.4C1153.17 258.507 1151.87 258.56 1150.38 258.56C1150.27 257.893 1150.07 257.12 1149.78 256.24C1149.49 255.387 1149.18 254.653 1148.86 254.04C1149.85 254.067 1150.81 254.093 1151.74 254.12C1152.67 254.12 1153.3 254.12 1153.62 254.12C1153.91 254.12 1154.11 254.08 1154.22 254C1154.35 253.893 1154.42 253.693 1154.42 253.4V236.96ZM1141.98 247.48L1145.94 245.28C1146.47 245.92 1147.05 246.64 1147.66 247.44C1148.3 248.213 1148.89 248.987 1149.42 249.76C1149.98 250.507 1150.43 251.173 1150.78 251.76L1146.54 254.24C1146.25 253.627 1145.83 252.933 1145.3 252.16C1144.79 251.387 1144.25 250.587 1143.66 249.76C1143.07 248.933 1142.51 248.173 1141.98 247.48ZM1129.3 223.48H1139.58V250.84H1129.3V246.56H1135.14V227.76H1129.3V223.48ZM1129.54 234.84H1137.3V239.04H1129.54V234.84ZM1127.02 223.48H1131.46V254.4H1127.02V223.48ZM1175.98 242.8V244.48H1193.38V242.8H1175.98ZM1175.98 247.2V248.96H1193.38V247.2H1175.98ZM1175.98 238.36V240.08H1193.38V238.36H1175.98ZM1171.34 235.52H1198.22V251.8H1171.34V235.52ZM1187.66 253.76L1190.86 251.24C1192.22 251.72 1193.61 252.24 1195.02 252.8C1196.46 253.36 1197.82 253.92 1199.1 254.48C1200.38 255.013 1201.47 255.507 1202.38 255.96L1198.06 258.52C1197.31 258.093 1196.37 257.6 1195.22 257.04C1194.1 256.507 1192.89 255.947 1191.58 255.36C1190.3 254.8 1188.99 254.267 1187.66 253.76ZM1177.9 251.44L1182.26 253.4C1181.19 254.12 1179.94 254.813 1178.5 255.48C1177.06 256.147 1175.58 256.747 1174.06 257.28C1172.54 257.813 1171.1 258.28 1169.74 258.68C1169.45 258.333 1169.09 257.933 1168.66 257.48C1168.26 257.053 1167.83 256.627 1167.38 256.2C1166.93 255.773 1166.53 255.427 1166.18 255.16C1167.59 254.893 1169.02 254.573 1170.46 254.2C1171.93 253.8 1173.3 253.373 1174.58 252.92C1175.89 252.44 1176.99 251.947 1177.9 251.44ZM1182.5 223.44H1198.7V226.92H1182.5V223.44ZM1182.86 220.76L1187.02 221.72C1186.49 223.4 1185.74 225 1184.78 226.52C1183.82 228.04 1182.79 229.32 1181.7 230.36C1181.43 230.12 1181.09 229.853 1180.66 229.56C1180.23 229.24 1179.79 228.933 1179.34 228.64C1178.89 228.347 1178.49 228.107 1178.14 227.92C1179.21 227.04 1180.14 225.973 1180.94 224.72C1181.77 223.44 1182.41 222.12 1182.86 220.76ZM1186.9 226.16H1191.3V227.76C1191.3 228.48 1191.14 229.227 1190.82 230C1190.53 230.773 1189.94 231.52 1189.06 232.24C1188.18 232.933 1186.89 233.573 1185.18 234.16C1183.47 234.72 1181.19 235.147 1178.34 235.44C1178.13 234.907 1177.77 234.28 1177.26 233.56C1176.78 232.84 1176.31 232.267 1175.86 231.84C1178.31 231.653 1180.27 231.4 1181.74 231.08C1183.23 230.76 1184.34 230.413 1185.06 230.04C1185.81 229.64 1186.3 229.227 1186.54 228.8C1186.78 228.373 1186.9 227.947 1186.9 227.52V226.16ZM1190.9 227.76C1191.59 228.533 1192.53 229.2 1193.7 229.76C1194.87 230.293 1196.26 230.707 1197.86 231C1199.46 231.293 1201.22 231.493 1203.14 231.6C1202.66 232.027 1202.17 232.627 1201.66 233.4C1201.15 234.147 1200.77 234.827 1200.5 235.44C1198.45 235.173 1196.58 234.747 1194.9 234.16C1193.25 233.573 1191.81 232.813 1190.58 231.88C1189.35 230.92 1188.33 229.76 1187.5 228.4L1190.9 227.76ZM1166.98 223H1177.26V226.52H1166.98V223ZM1166.1 229.16H1178.22V232.84H1166.1V229.16ZM1197.02 223.44H1197.74L1198.46 223.24L1201.74 224.24C1201.23 225.36 1200.65 226.507 1199.98 227.68C1199.34 228.827 1198.7 229.8 1198.06 230.6L1194.34 229.24C1194.79 228.547 1195.27 227.72 1195.78 226.76C1196.31 225.773 1196.73 224.853 1197.02 224V223.44ZM1207.62 233.24H1219.3V236.84H1207.62V233.24ZM1207.62 238.64H1219.42V242.28H1207.62V238.64ZM1206.02 227.64H1220.74V231.44H1206.02V227.64ZM1209.58 244.2H1219.42V256.36H1209.58V252.52H1215.62V248H1209.58V244.2ZM1207.66 244.2H1211.34V258.08H1207.66V244.2ZM1210.06 222.6L1213.42 220.84C1213.93 221.667 1214.43 222.587 1214.94 223.6C1215.47 224.587 1215.87 225.453 1216.14 226.2L1212.62 228.28C1212.38 227.533 1212.01 226.627 1211.5 225.56C1210.99 224.467 1210.51 223.48 1210.06 222.6ZM1220.74 238.24H1233.58V242.72H1220.74V238.24ZM1234.58 223.08H1239.38C1239.33 225.267 1239.27 227.52 1239.22 229.84C1239.19 232.16 1239.18 234.44 1239.18 236.68C1239.18 238.893 1239.19 240.987 1239.22 242.96C1239.27 244.907 1239.35 246.653 1239.46 248.2C1239.57 249.72 1239.7 250.933 1239.86 251.84C1240.05 252.72 1240.26 253.2 1240.5 253.28C1240.58 253.307 1240.65 253.08 1240.7 252.6C1240.78 252.093 1240.85 251.44 1240.9 250.64C1240.95 249.84 1240.99 249.013 1241.02 248.16C1241.26 248.56 1241.53 249.027 1241.82 249.56C1242.14 250.067 1242.45 250.547 1242.74 251C1243.06 251.427 1243.33 251.773 1243.54 252.04C1243.33 254.013 1242.97 255.493 1242.46 256.48C1241.98 257.467 1241.38 258.067 1240.66 258.28C1239.97 258.52 1239.21 258.467 1238.38 258.12C1237.55 257.773 1236.89 256.867 1236.38 255.4C1235.87 253.96 1235.49 252.107 1235.22 249.84C1234.95 247.547 1234.78 244.96 1234.7 242.08C1234.62 239.2 1234.58 236.147 1234.58 232.92C1234.58 229.667 1234.58 226.387 1234.58 223.08ZM1225.22 226.04H1229.7V258.56H1225.22V226.04ZM1221.26 223.08H1236.78V227.64H1221.26V223.08Z" fill="#343A40"/>
</svg>
