<svg width="122" height="122" viewBox="0 0 122 122" fill="none" xmlns="http://www.w3.org/2000/svg">
<rect x="19.3334" y="18.8335" width="75" height="75" rx="10" fill="#D595EE"/>
<path d="M51.7682 46.9258L44.0338 70.5H37.8033L48.3697 42.0625H52.3346L51.7682 46.9258ZM58.194 70.5L50.4401 46.9258L49.8151 42.0625H53.819L64.444 70.5H58.194ZM57.8424 59.9141V64.5039H42.8229V59.9141H57.8424Z" fill="white"/>
<path d="M72.6666 49.3672V70.5H67.0221V49.3672H72.6666ZM66.6705 43.8594C66.6705 43.0391 66.957 42.362 67.5299 41.8281C68.1028 41.2943 68.8711 41.0273 69.8346 41.0273C70.7851 41.0273 71.5468 41.2943 72.1197 41.8281C72.7057 42.362 72.9987 43.0391 72.9987 43.8594C72.9987 44.6797 72.7057 45.3568 72.1197 45.8906C71.5468 46.4245 70.7851 46.6914 69.8346 46.6914C68.8711 46.6914 68.1028 46.4245 67.5299 45.8906C66.957 45.3568 66.6705 44.6797 66.6705 43.8594Z" fill="white"/>
<path d="M89.9067 64.9794C89.6889 64.3908 89.1276 64 88.5 64C87.8723 64 87.311 64.3908 87.0932 64.9794L83.0561 75.8895L72.1461 79.9266C71.5574 80.1444 71.1666 80.7057 71.1666 81.3333C71.1666 81.961 71.5574 82.5223 72.1461 82.7401L83.0561 86.7772L87.0932 97.6872C87.311 98.2759 87.8723 98.6667 88.5 98.6667C89.1276 98.6667 89.6889 98.2759 89.9067 97.6872L93.9438 86.7772L104.854 82.7401C105.443 82.5223 105.833 81.961 105.833 81.3333C105.833 80.7057 105.443 80.1444 104.854 79.9266L93.9438 75.8895L89.9067 64.9794Z" fill="white" stroke="#D595EE" stroke-width="3" stroke-linejoin="round"/>
<path d="M30.7401 16.6459C30.5222 16.0573 29.961 15.6665 29.3333 15.6665C28.7056 15.6665 28.1443 16.0573 27.9265 16.6459L25.0148 24.5147L17.1461 27.4264C16.5574 27.6442 16.1666 28.2055 16.1666 28.8332C16.1666 29.4608 16.5574 30.0221 17.1461 30.2399L25.0148 33.1516L27.9265 41.0204C28.1443 41.609 28.7056 41.9998 29.3333 41.9998C29.961 41.9998 30.5222 41.609 30.7401 41.0204L33.6518 33.1516L41.5205 30.2399C42.1092 30.0221 42.5 29.4608 42.5 28.8332C42.5 28.2055 42.1092 27.6442 41.5205 27.4264L33.6518 24.5147L30.7401 16.6459Z" fill="white" stroke="#D595EE" stroke-width="3" stroke-linejoin="round"/>
</svg>
