<svg width="65" height="64" viewBox="0 0 65 64" fill="none" xmlns="http://www.w3.org/2000/svg">
<rect x="10.2778" y="9.77783" width="40" height="40" rx="10" fill="#D595EE"/>
<path d="M27.5763 24.7606L23.4513 37.3335H20.1284L25.7638 22.1668H27.8784L27.5763 24.7606ZM31.0034 37.3335L26.868 24.7606L26.5347 22.1668H28.6701L34.3368 37.3335H31.0034ZM30.8159 31.6877V34.1356H22.8055V31.6877H30.8159Z" fill="white"/>
<path d="M38.7222 26.0627V37.3335H35.7118V26.0627H38.7222ZM35.5243 23.1252C35.5243 22.6877 35.677 22.3266 35.9826 22.0418C36.2881 21.7571 36.6979 21.6147 37.2118 21.6147C37.7187 21.6147 38.1249 21.7571 38.4305 22.0418C38.743 22.3266 38.8993 22.6877 38.8993 23.1252C38.8993 23.5627 38.743 23.9238 38.4305 24.2085C38.1249 24.4932 37.7187 24.6356 37.2118 24.6356C36.6979 24.6356 36.2881 24.4932 35.9826 24.2085C35.677 23.9238 35.5243 23.5627 35.5243 23.1252Z" fill="white"/>
<path d="M48.5734 34.1459C48.3556 33.5573 47.7943 33.1665 47.1666 33.1665C46.5389 33.1665 45.9777 33.5573 45.7598 34.1459L43.7184 39.6628L38.2016 41.7042C37.613 41.922 37.2222 42.4833 37.2222 43.1109C37.2222 43.7386 37.613 44.2999 38.2016 44.5177L43.7184 46.5591L45.7598 52.0759C45.9777 52.6646 46.5389 53.0554 47.1666 53.0554C47.7943 53.0554 48.3556 52.6646 48.5734 52.0759L50.6148 46.5591L56.1316 44.5177C56.7203 44.2999 57.1111 43.7386 57.1111 43.1109C57.1111 42.4833 56.7203 41.922 56.1316 41.7042L50.6148 39.6628L48.5734 34.1459Z" fill="white" stroke="#D595EE" stroke-width="3" stroke-linejoin="round"/>
<path d="M17.0179 8.36812C16.8001 7.77946 16.2388 7.38867 15.6111 7.38867C14.9835 7.38867 14.4222 7.77946 14.2044 8.36812L12.7632 12.2629L8.86836 13.7041C8.27971 13.9219 7.88892 14.4832 7.88892 15.1109C7.88892 15.7386 8.27971 16.2998 8.86836 16.5177L12.7632 17.9589L14.2044 21.8537C14.4222 22.4423 14.9835 22.8331 15.6111 22.8331C16.2388 22.8331 16.8001 22.4423 17.0179 21.8537L18.4591 17.9589L22.3539 16.5177C22.9426 16.2998 23.3334 15.7386 23.3334 15.1109C23.3334 14.4832 22.9426 13.9219 22.3539 13.7041L18.4591 12.2629L17.0179 8.36812Z" fill="white" stroke="#D595EE" stroke-width="3" stroke-linejoin="round"/>
</svg>
