<svg width="65" height="64" viewBox="0 0 65 64" fill="none" xmlns="http://www.w3.org/2000/svg">
<rect x="10.2778" y="9.77783" width="44.4444" height="40" rx="10" fill="#D595EE"/>
<rect x="14.7222" y="15.1113" width="5.33333" height="6" fill="white"/>
<rect x="14.7222" y="22.8892" width="5.33333" height="6" fill="white"/>
<rect x="14.7222" y="30.667" width="5.33333" height="6" fill="white"/>
<rect x="14.7222" y="38.4448" width="5.33333" height="6" fill="white"/>
<rect x="44.9443" y="15.1113" width="5.33334" height="6" fill="white"/>
<rect x="44.9443" y="22.8892" width="5.33334" height="6" fill="white"/>
<rect x="44.9443" y="30.667" width="5.33334" height="6" fill="white"/>
<rect x="44.9443" y="38.4448" width="5.33334" height="6" fill="white"/>
<path d="M39.4562 27.9781C40.9592 28.7071 40.9592 30.8483 39.4562 31.5772L29.3728 36.4674C28.0446 37.1115 26.5001 36.144 26.5001 34.6678L26.5001 24.8875C26.5001 23.4113 28.0446 22.4438 29.3728 23.088L39.4562 27.9781Z" fill="white"/>
</svg>
