<svg width="122" height="122" viewBox="0 0 122 122" fill="none" xmlns="http://www.w3.org/2000/svg">
<rect x="20.7573" y="17.1787" width="51.5895" height="79.9878" rx="8" fill="#D595EE"/>
<path d="M30.7573 51.5854H46.0964" stroke="white" stroke-width="6" stroke-linecap="round"/>
<path d="M30.7573 66.7666H61.4356" stroke="white" stroke-width="6" stroke-linecap="round"/>
<path d="M23.2573 25.1665C23.2573 22.1289 25.7197 19.6665 28.7573 19.6665H39.9239V35.4665H23.2573V25.1665Z" fill="white" stroke="#D595EE" stroke-width="5" stroke-linejoin="round"/>
<path d="M86.1957 90.4296C94.0805 85.9458 96.8376 75.919 92.3538 68.0342C87.87 60.1493 77.8432 57.3923 69.9584 61.8761C62.0735 66.3599 59.3165 76.3867 63.8003 84.2715C68.2841 92.1564 78.3109 94.9134 86.1957 90.4296Z" stroke="white" stroke-width="5"/>
<path d="M88.0074 70.5058C91.1262 75.9902 89.2085 82.9644 83.7241 86.0832C78.2397 89.202 71.2654 87.2843 68.1467 81.7999C65.0279 76.3155 66.9456 69.3412 72.43 66.2225C77.9144 63.1037 84.8886 65.0214 88.0074 70.5058Z" fill="white" stroke="#D595EE" stroke-width="5"/>
<path d="M84.9599 88.2563L90.4662 97.9392" stroke="#D595EE" stroke-width="5" stroke-linecap="round"/>
</svg>
