<svg width="122" height="122" viewBox="0 0 122 122" fill="none" xmlns="http://www.w3.org/2000/svg">
<rect x="19.3334" y="18.8335" width="83.3333" height="75" rx="10" fill="#D595EE"/>
<rect x="27.6666" y="28.8335" width="10" height="6" fill="white"/>
<rect x="27.6666" y="45.167" width="10" height="6" fill="white"/>
<rect x="27.6666" y="61.5" width="10" height="6" fill="white"/>
<rect x="27.6666" y="77.8335" width="10" height="6" fill="white"/>
<rect x="84.3334" y="28.8335" width="10" height="6" fill="white"/>
<rect x="84.3334" y="45.167" width="10" height="6" fill="white"/>
<rect x="84.3334" y="61.5" width="10" height="6" fill="white"/>
<rect x="84.3334" y="77.8335" width="10" height="6" fill="white"/>
<path d="M77.2894 54.534C78.7924 55.2629 78.7924 57.4041 77.2894 58.133L52.6227 70.0957C51.2945 70.7399 49.75 69.7724 49.75 68.2962L49.75 44.3708C49.75 42.8946 51.2945 41.9271 52.6227 42.5713L77.2894 54.534Z" fill="white"/>
</svg>
