<svg width="60" height="60" viewBox="0 0 60 60" fill="none" xmlns="http://www.w3.org/2000/svg">
<circle cx="30" cy="30" r="29.5" transform="matrix(-1 0 0 1 60 0)" fill="white" fill-opacity="0.4" stroke="#7AACF1"/>
<path fill-rule="evenodd" clip-rule="evenodd" d="M20.3612 30.0913C19.8731 29.6031 19.8731 28.8117 20.3612 28.3235L28.3162 20.3686C28.8043 19.8804 29.5958 19.8804 30.084 20.3686C30.5721 20.8567 30.5721 21.6482 30.084 22.1363L24.2629 27.9574H41.2451C41.9355 27.9574 42.4951 28.517 42.4951 29.2074C42.4951 29.8977 41.9355 30.4574 41.2451 30.4574H24.2629L30.084 36.2785C30.5721 36.7666 30.5721 37.5581 30.084 38.0462C29.5958 38.5344 28.8043 38.5344 28.3162 38.0462L20.3612 30.0913Z" fill="#7AACF1"/>
</svg>
